<svg width="21" height="21" viewBox="0 0 21 21" fill="none" xmlns="http://www.w3.org/2000/svg">
<path fill-rule="evenodd" clip-rule="evenodd" d="M11.5986 2.1336C11.2757 1.0376 9.72426 1.0376 9.40137 2.1336L9.27799 2.55232C9.17422 2.90402 8.99309 3.22805 8.74787 3.50068C8.50266 3.77332 8.19956 3.98764 7.86078 4.12796C7.522 4.26828 7.15612 4.33104 6.78995 4.31164C6.42377 4.29224 6.06657 4.19117 5.74451 4.01584L5.36124 3.80583C4.35843 3.26111 3.26111 4.35712 3.80714 5.36124L4.01584 5.74451C4.19117 6.06657 4.29224 6.42377 4.31164 6.78995C4.33104 7.15612 4.26828 7.522 4.12796 7.86078C3.98764 8.19956 3.77332 8.50266 3.50068 8.74787C3.22805 8.99309 2.90402 9.17422 2.55232 9.27799L2.1336 9.40137C1.0376 9.72426 1.0376 11.2757 2.1336 11.5986L2.55232 11.722C2.9042 11.8257 3.22841 12.0069 3.50118 12.2522C3.77395 12.4975 3.98836 12.8008 4.1287 13.1397C4.26904 13.4787 4.33174 13.8447 4.31221 14.211C4.29268 14.5774 4.19142 14.9347 4.01584 15.2568L3.80583 15.6388C3.26111 16.6416 4.35712 17.7389 5.36124 17.1929L5.74451 16.9842C6.06666 16.8088 6.42394 16.7078 6.79019 16.6885C7.15644 16.6692 7.52237 16.7321 7.86116 16.8725C8.19996 17.013 8.50304 17.2274 8.7482 17.5002C8.99335 17.773 9.17437 18.0972 9.27799 18.449L9.40137 18.8664C9.72426 19.9624 11.2757 19.9624 11.5986 18.8664L11.722 18.4477C11.8257 18.0958 12.0069 17.7716 12.2522 17.4988C12.4975 17.226 12.8008 17.0116 13.1397 16.8713C13.4787 16.731 13.8447 16.6683 14.211 16.6878C14.5774 16.7073 14.9347 16.8086 15.2568 16.9842L15.6388 17.1942C16.6416 17.7389 17.7389 16.6429 17.1929 15.6388L16.9842 15.2568C16.8086 14.9346 16.7074 14.5772 16.6879 14.2108C16.6685 13.8444 16.7313 13.4783 16.8718 13.1393C17.0122 12.8003 17.2268 12.4971 17.4997 12.2519C17.7726 12.0066 18.097 11.8256 18.449 11.722L18.8664 11.5986C19.9624 11.2757 19.9624 9.72426 18.8664 9.40137L18.4477 9.27799C18.096 9.17422 17.7719 8.99309 17.4993 8.74787C17.2267 8.50266 17.0124 8.19956 16.872 7.86078C16.7317 7.522 16.669 7.15612 16.6884 6.78995C16.7078 6.42377 16.8088 6.06657 16.9842 5.74451L17.1942 5.36124C17.7389 4.35843 16.6429 3.26111 15.6388 3.80714L15.2568 4.01584C14.9346 4.19167 14.5772 4.29313 14.2107 4.31279C13.8442 4.33244 13.478 4.26979 13.1389 4.12944C12.7998 3.98909 12.4964 3.77459 12.251 3.50168C12.0056 3.22877 11.8244 2.90438 11.7207 2.55232L11.5973 2.1336H11.5986ZM8.1426 1.76214C8.83433 -0.58738 12.1657 -0.58738 12.8574 1.76214L12.9808 2.18085C13.0291 2.34486 13.1135 2.49599 13.2278 2.62314C13.3421 2.75029 13.4834 2.85026 13.6413 2.91571C13.7993 2.98115 13.9699 3.01042 14.1406 3.00137C14.3114 2.99232 14.4779 2.94518 14.6281 2.8634L15.0113 2.65338C17.164 1.48256 19.5188 3.83602 18.3453 5.98866L18.1366 6.37193C18.0548 6.52208 18.0077 6.68863 17.9986 6.85936C17.9896 7.0301 18.0188 7.2007 18.0843 7.35865C18.1497 7.51661 18.2497 7.65791 18.3769 7.77221C18.504 7.88651 18.6551 7.97091 18.8191 8.01922L19.2379 8.1426C21.5874 8.83433 21.5874 12.1657 19.2379 12.8574L18.8191 12.9808C18.6551 13.0291 18.504 13.1135 18.3769 13.2278C18.2497 13.3421 18.1497 13.4834 18.0843 13.6413C18.0188 13.7993 17.9896 13.9699 17.9986 14.1406C18.0077 14.3114 18.0548 14.4779 18.1366 14.6281L18.3466 15.0113C19.5188 17.164 17.1627 19.5188 15.0113 18.3453L14.6281 18.1366C14.4779 18.0548 14.3114 18.0077 14.1406 17.9986C13.9699 17.9896 13.7993 18.0188 13.6413 18.0843C13.4834 18.1497 13.3421 18.2497 13.2278 18.3769C13.1135 18.504 13.0291 18.6551 12.9808 18.8191L12.8574 19.2379C12.1657 21.5874 8.83433 21.5874 8.1426 19.2379L8.01922 18.8191C7.97091 18.6551 7.88651 18.504 7.77221 18.3769C7.65791 18.2497 7.51661 18.1497 7.35865 18.0843C7.2007 18.0188 7.0301 17.9896 6.85936 17.9986C6.68863 18.0077 6.52208 18.0548 6.37193 18.1366L5.98866 18.3466C3.83602 19.5188 1.48256 17.1627 2.6547 15.0113L2.8634 14.6281C2.94518 14.4779 2.99232 14.3114 3.00137 14.1406C3.01042 13.9699 2.98115 13.7993 2.91571 13.6413C2.85026 13.4834 2.75029 13.3421 2.62314 13.2278C2.49599 13.1135 2.34486 13.0291 2.18085 12.9808L1.76214 12.8574C-0.58738 12.1657 -0.58738 8.83433 1.76214 8.1426L2.18085 8.01922C2.34486 7.97091 2.49599 7.88651 2.62314 7.77221C2.75029 7.65791 2.85026 7.51661 2.91571 7.35865C2.98115 7.2007 3.01042 7.0301 3.00137 6.85936C2.99232 6.68863 2.94518 6.52208 2.8634 6.37193L2.65338 5.98866C1.48256 3.83602 3.83733 1.48256 5.98866 2.6547L6.37193 2.8634C6.52208 2.94518 6.68863 2.99232 6.85936 3.00137C7.0301 3.01042 7.2007 2.98115 7.35865 2.91571C7.51661 2.85026 7.65791 2.75029 7.77221 2.62314C7.88651 2.49599 7.97091 2.34486 8.01922 2.18085L8.1426 1.76214Z" fill="#26C483"/>
<path fill-rule="evenodd" clip-rule="evenodd" d="M10.4901 7.54207C9.70826 7.54207 8.95841 7.85267 8.40554 8.40554C7.85267 8.95841 7.54207 9.70826 7.54207 10.4901C7.54207 11.272 7.85267 12.0219 8.40554 12.5747C8.95841 13.1276 9.70826 13.4382 10.4901 13.4382C11.272 13.4382 12.0219 13.1276 12.5747 12.5747C13.1276 12.0219 13.4382 11.272 13.4382 10.4901C13.4382 9.70826 13.1276 8.95841 12.5747 8.40554C12.0219 7.85267 11.272 7.54207 10.4901 7.54207ZM6.22949 10.4901C6.22949 9.93062 6.3397 9.37658 6.55381 8.85966C6.76793 8.34273 7.08177 7.87304 7.47741 7.47741C7.87304 7.08177 8.34273 6.76793 8.85966 6.55381C9.37658 6.3397 9.93062 6.22949 10.4901 6.22949C11.0496 6.22949 11.6037 6.3397 12.1206 6.55381C12.6375 6.76793 13.1072 7.08177 13.5029 7.47741C13.8985 7.87304 14.2123 8.34273 14.4265 8.85966C14.6406 9.37658 14.7508 9.93062 14.7508 10.4901C14.7508 11.6201 14.3019 12.7038 13.5029 13.5029C12.7038 14.3019 11.6201 14.7508 10.4901 14.7508C9.36014 14.7508 8.27643 14.3019 7.47741 13.5029C6.67838 12.7038 6.22949 11.6201 6.22949 10.4901Z" fill="#26C483"/>
</svg>
