<svg width="21" height="18" viewBox="0 0 21 18" fill="none" xmlns="http://www.w3.org/2000/svg">
<path fill-rule="evenodd" clip-rule="evenodd" d="M19.0312 1.5H1.96875C1.7947 1.5 1.62778 1.57902 1.50471 1.71967C1.38164 1.86032 1.3125 2.05109 1.3125 2.25V15.75C1.3125 15.9489 1.38164 16.1397 1.50471 16.2803C1.62778 16.421 1.7947 16.5 1.96875 16.5H19.0312C19.2053 16.5 19.3722 16.421 19.4953 16.2803C19.6184 16.1397 19.6875 15.9489 19.6875 15.75V2.25C19.6875 2.05109 19.6184 1.86032 19.4953 1.71967C19.3722 1.57902 19.2053 1.5 19.0312 1.5ZM1.96875 0C1.44661 0 0.945846 0.237053 0.576634 0.65901C0.207421 1.08097 0 1.65326 0 2.25L0 15.75C0 16.3467 0.207421 16.919 0.576634 17.341C0.945846 17.7629 1.44661 18 1.96875 18H19.0312C19.5534 18 20.0542 17.7629 20.4234 17.341C20.7926 16.919 21 16.3467 21 15.75V2.25C21 1.65326 20.7926 1.08097 20.4234 0.65901C20.0542 0.237053 19.5534 0 19.0312 0H1.96875Z" fill="#26C483"/>
<path fill-rule="evenodd" clip-rule="evenodd" d="M16.3386 4.86593C16.4558 4.98008 16.5487 5.1157 16.6122 5.265C16.6756 5.41431 16.7083 5.57436 16.7083 5.73601C16.7083 5.89766 16.6756 6.05772 16.6122 6.20702C16.5487 6.35633 16.4558 6.49194 16.3386 6.6061L8.98746 13.399C8.87056 13.5134 8.73169 13.6042 8.57881 13.6662C8.42592 13.7281 8.26202 13.76 8.0965 13.76C7.93097 13.76 7.76708 13.7281 7.61419 13.6662C7.46131 13.6042 7.32244 13.5134 7.20554 13.399L4.59073 10.3515C4.47372 10.2373 4.38091 10.1016 4.31759 9.95233C4.25427 9.80304 4.22168 9.64304 4.22168 9.48145C4.22168 9.1551 4.35443 8.84212 4.59073 8.61136C4.82702 8.3806 5.14751 8.25096 5.48168 8.25096C5.81586 8.25096 6.13634 8.3806 6.37264 8.61136L8.0965 10.6115L14.5567 4.86593C14.6736 4.75148 14.8124 4.66068 14.9653 4.59873C15.1182 4.53677 15.2821 4.50488 15.4476 4.50488C15.6131 4.50488 15.777 4.53677 15.9299 4.59873C16.0828 4.66068 16.2217 4.75148 16.3386 4.86593Z" fill="#26C483"/>
</svg>
