<svg width="38" height="38" viewBox="0 0 38 38" fill="none" xmlns="http://www.w3.org/2000/svg">
<rect width="38" height="38" rx="5" fill="#A6FFD7" fill-opacity="0.32"/>
<path d="M20.446 7.52769C20.446 7.91163 20.2935 8.27983 20.022 8.55131C19.7505 8.82279 19.3823 8.97531 18.9984 8.97531C18.6145 8.97531 18.2463 8.82279 17.9748 8.55131C17.7033 8.27983 17.5508 7.91163 17.5508 7.52769C17.5508 7.14376 17.7033 6.77556 17.9748 6.50408C18.2463 6.23259 18.6145 6.08008 18.9984 6.08008C19.3823 6.08008 19.7505 6.23259 20.022 6.50408C20.2935 6.77556 20.446 7.14376 20.446 7.52769Z" fill="#53E2A4"/>
<path d="M20.446 7.52769C20.446 7.91163 20.2935 8.27983 20.022 8.55131C19.7505 8.82279 19.3823 8.97531 18.9984 8.97531C18.6145 8.97531 18.2463 8.82279 17.9748 8.55131C17.7033 8.27983 17.5508 7.91163 17.5508 7.52769C17.5508 7.14376 17.7033 6.77556 17.9748 6.50408C18.2463 6.23259 18.6145 6.08008 18.9984 6.08008C19.3823 6.08008 19.7505 6.23259 20.022 6.50408C20.2935 6.77556 20.446 7.14376 20.446 7.52769Z" fill="#53E2A4"/>
<path d="M6.69503 11.869C6.69503 12.2529 6.54251 12.6211 6.27103 12.8926C5.99955 13.1641 5.63135 13.3166 5.24741 13.3166C4.86348 13.3166 4.49528 13.1641 4.2238 12.8926C3.95231 12.6211 3.7998 12.2529 3.7998 11.869C3.7998 11.4851 3.95231 11.1169 4.2238 10.8454C4.49528 10.5739 4.86348 10.4214 5.24741 10.4214C5.63135 10.4214 5.99955 10.5739 6.27103 10.8454C6.54251 11.1169 6.69503 11.4851 6.69503 11.869Z" fill="#53E2A4"/>
<path d="M6.69503 11.869C6.69503 12.2529 6.54251 12.6211 6.27103 12.8926C5.99955 13.1641 5.63135 13.3166 5.24741 13.3166C4.86348 13.3166 4.49528 13.1641 4.2238 12.8926C3.95231 12.6211 3.7998 12.2529 3.7998 11.869C3.7998 11.4851 3.95231 11.1169 4.2238 10.8454C4.49528 10.5739 4.86348 10.4214 5.24741 10.4214C5.63135 10.4214 5.99955 10.5739 6.27103 10.8454C6.54251 11.1169 6.69503 11.4851 6.69503 11.869Z" fill="#53E2A4"/>
<path d="M34.1999 11.869C34.1999 12.2529 34.0474 12.6211 33.7759 12.8926C33.5044 13.1641 33.1362 13.3166 32.7523 13.3166C32.3684 13.3166 32.0002 13.1641 31.7287 12.8926C31.4572 12.6211 31.3047 12.2529 31.3047 11.869C31.3047 11.4851 31.4572 11.1169 31.7287 10.8454C32.0002 10.5739 32.3684 10.4214 32.7523 10.4214C33.1362 10.4214 33.5044 10.5739 33.7759 10.8454C34.0474 11.1169 34.1999 11.4851 34.1999 11.869Z" fill="#53E2A4"/>
<path d="M34.1999 11.869C34.1999 12.2529 34.0474 12.6211 33.7759 12.8926C33.5044 13.1641 33.1362 13.3166 32.7523 13.3166C32.3684 13.3166 32.0002 13.1641 31.7287 12.8926C31.4572 12.6211 31.3047 12.2529 31.3047 11.869C31.3047 11.4851 31.4572 11.1169 31.7287 10.8454C32.0002 10.5739 32.3684 10.4214 32.7523 10.4214C33.1362 10.4214 33.5044 10.5739 33.7759 10.8454C34.0474 11.1169 34.1999 11.4851 34.1999 11.869Z" fill="#53E2A4"/>
<path d="M32.0556 17.4333L29.0029 30.5075C28.8973 30.96 28.4938 31.2802 28.0291 31.2802H18.9994H9.96972C9.50503 31.2802 9.10157 30.96 8.99591 30.5075L5.94326 17.4333C5.72335 16.4915 6.83552 15.8171 7.56895 16.4476L13.0206 21.1341C13.5425 21.5828 14.3511 21.3824 14.6031 20.7419L18.0688 11.9316C18.4013 11.0863 19.5975 11.0863 19.93 11.9316L23.3958 20.7419C23.6477 21.3824 24.4563 21.5828 24.9782 21.1341L30.4299 16.4476C31.1633 15.8171 32.2755 16.4915 32.0556 17.4333Z" fill="#53E2A4"/>
</svg>
