<svg width="44" height="44" viewBox="0 0 44 44" fill="none" xmlns="http://www.w3.org/2000/svg">
<path fill-rule="evenodd" clip-rule="evenodd" d="M16.5659 5.58901C16.3609 5.57424 16.1553 5.56685 15.9497 5.56683V4.3999C16.1849 4.40001 16.4199 4.40858 16.6545 4.42557L16.5659 5.58901ZM18.9638 6.11413C18.5802 5.96978 18.1863 5.85316 17.7852 5.76521L18.0472 4.62629C18.5055 4.72664 18.9566 4.85967 19.3945 5.02538L18.9638 6.11413ZM20.603 6.94265C20.432 6.83138 20.2567 6.72629 20.0778 6.62758L20.6676 5.61235C21.0767 5.83842 21.4683 6.0935 21.8391 6.37552L21.1032 7.29623C20.941 7.1728 20.7741 7.05525 20.603 6.94381V6.94265ZM22.7975 9.03146C22.5608 8.70352 22.2996 8.39305 22.0161 8.10258L22.8824 7.2974C23.2055 7.62997 23.5046 7.98589 23.7762 8.3593L22.7975 9.03146ZM23.6877 10.6091C23.6092 10.4241 23.5238 10.242 23.4316 10.063L24.5001 9.53791C24.7115 9.9476 24.8914 10.372 25.0386 10.8075L23.9019 11.1728C23.8376 10.9824 23.7661 10.7944 23.6877 10.6091ZM24.3219 13.5346C24.3122 13.1336 24.2722 12.7338 24.2022 12.3385L25.3808 12.1402C25.461 12.5906 25.5076 13.048 25.5196 13.5055L24.3231 13.5346H24.3219ZM24.1651 15.3294C24.2046 15.131 24.2369 14.9338 24.262 14.7343L25.4502 14.8778C25.3927 15.3331 25.3007 15.7836 25.175 16.2256L24.0215 15.914C24.0766 15.7215 24.1244 15.5266 24.1651 15.3294ZM23.026 18.1055C23.2462 17.7671 23.44 17.4124 23.6075 17.0459L24.7012 17.5186C24.5097 17.9387 24.2884 18.3424 24.0371 18.7298L23.026 18.1055ZM21.8726 19.5117C22.0185 19.3693 22.1585 19.2223 22.2913 19.0706L23.1983 19.8326C23.0447 20.0063 22.8847 20.1744 22.7185 20.3367L21.8726 19.5117Z" fill="#DEDEDE"/>
<path fill-rule="evenodd" clip-rule="evenodd" d="M15.8228 5.58256C14.4646 5.58266 13.1274 5.91849 11.9296 6.56032C10.7318 7.20214 9.71038 8.13014 8.95584 9.26212C8.2013 10.3941 7.73692 11.6951 7.60382 13.05C7.47073 14.4048 7.67303 15.7716 8.19281 17.0294C8.71259 18.2871 9.53381 19.397 10.5837 20.2606C11.6336 21.1243 12.8798 21.7151 14.212 21.9807C15.5441 22.2463 16.921 22.1786 18.2207 21.7834C19.5205 21.3883 20.7029 20.678 21.6634 19.7154L22.4976 20.5515C21.4 21.6523 20.0484 22.4647 18.5626 22.9168C17.0769 23.3689 15.5028 23.4467 13.9799 23.1433C12.457 22.8399 11.0322 22.1646 9.83191 21.1774C8.63158 20.1902 7.69272 18.9214 7.09852 17.4836C6.50431 16.0457 6.27311 14.4831 6.4254 12.9343C6.57769 11.3855 7.10876 9.89821 7.97157 8.60428C8.83438 7.31036 10.0023 6.24972 11.3718 5.51634C12.7413 4.78296 14.2701 4.39949 15.8228 4.3999V5.58256Z" fill="#DEDEDE"/>
<path fill-rule="evenodd" clip-rule="evenodd" d="M15.5038 7.88574C15.6526 7.88574 15.7952 7.94751 15.9004 8.05747C16.0056 8.16743 16.0647 8.31656 16.0647 8.47206V14.5815L19.7085 16.7579C19.8339 16.837 19.9247 16.9642 19.9616 17.1124C19.9985 17.2605 19.9784 17.4179 19.9057 17.5508C19.8331 17.6837 19.7136 17.7817 19.5727 17.8237C19.4319 17.8657 19.2809 17.8485 19.152 17.7757L15.2256 15.4305C15.1397 15.3792 15.0684 15.3051 15.0187 15.2158C14.9691 15.1264 14.9429 15.0249 14.9429 14.9215V8.47206C14.9429 8.31656 15.002 8.16743 15.1072 8.05747C15.2124 7.94751 15.355 7.88574 15.5038 7.88574Z" fill="#DEDEDE"/>
<path d="M16.8154 20.1766C16.8154 19.7142 17.1324 19.3121 17.5821 19.2042L27.4077 16.846C27.5675 16.8077 27.7344 16.8093 27.8935 16.8508L36.8725 19.1932C37.3128 19.308 37.6201 19.7057 37.6201 20.1608V27.3458C37.6201 27.7715 37.3506 28.1505 36.9486 28.2903L27.9474 31.4212C27.7545 31.4883 27.5458 31.4947 27.3492 31.4397L17.5458 28.6947C17.114 28.5738 16.8154 28.1802 16.8154 27.7317V20.1766Z" fill="#DEDEDE"/>
<path d="M17.7783 21.1353L27.3138 23.4067M27.3138 23.4067L36.6405 21.1353M27.3138 23.4067V31.5376" stroke="#F7F7F7" stroke-width="0.5"/>
<path d="M11.0508 40.7554V41.7506H16.7396V40.7554H11.0508ZM13.313 34.4042V41.3626H14.3526V34.4042H13.313ZM10.5601 38.6467V42.2398H11.5747V38.6467H10.5601ZM16.2073 38.6467V42.2314H17.2469V38.6467H16.2073ZM10.8927 35.1127V38.1913H16.9142V35.1127H15.858V37.2129H11.8908V35.1127H10.8927Z" fill="#DEDEDE"/>
<path d="M21.0062 36.7237V37.6599H25.988V36.7237H21.0062ZM24.3247 37.1876V41.1012C24.3247 41.2277 24.2747 41.2699 24.1167 41.2783C23.967 41.2783 23.4181 41.2783 22.9357 41.253C23.0688 41.5145 23.2268 41.9277 23.2767 42.1977C23.9753 42.1977 24.4827 42.1808 24.8403 42.0374C25.1979 41.894 25.3061 41.6325 25.3061 41.118V37.1876H24.3247ZM20.0248 36.3188C19.6339 37.2466 18.9519 38.1322 18.2449 38.7058C18.4362 38.9335 18.744 39.4311 18.8521 39.6504C19.6671 38.9335 20.4822 37.7695 20.9812 36.6393L20.0248 36.3188ZM21.4969 38.2081V39.0263H22.8609V39.8697H21.4969V40.6879H23.7674V38.2081H21.4969ZM20.9979 38.2081V41.1686H21.921V38.2081H20.9979ZM18.5028 34.8681V35.7874H25.9381V34.8681H18.5028ZM20.2493 34.3198V36.4116H21.2307V34.3198H20.2493ZM23.1603 34.3198V36.4116H24.1583V34.3198H23.1603ZM19.3594 38.2756V42.2398H20.3325V37.2972V37.2888L19.3594 38.2756Z" fill="#DEDEDE"/>
<path d="M27.6348 34.8259V42.1386H28.6661V35.8465H32.3672V42.1302H33.4401V34.8259H27.6348ZM28.3417 37.6599V38.6636H32.8163V37.6599H28.3417ZM28.3334 40.5698V41.5904H32.8163V40.5698H28.3334Z" fill="#DEDEDE"/>
</svg>
