<svg width="23" height="23" viewBox="0 0 23 23" fill="none" xmlns="http://www.w3.org/2000/svg">
<path d="M1.05397 20.8892L6.63 5.5396C6.67774 5.40825 6.7579 5.2911 6.86303 5.19903C6.96817 5.10696 7.09487 5.04295 7.23137 5.01297C7.36787 4.98298 7.50973 4.98798 7.64378 5.0275C7.77782 5.06702 7.89971 5.13979 7.9981 5.23903L17.7613 15.0023C17.8606 15.1007 17.9333 15.2225 17.9729 15.3566C18.0124 15.4906 18.0174 15.6325 17.9874 15.769C17.9574 15.9055 17.8934 16.0322 17.8013 16.1373C17.7093 16.2425 17.5921 16.3226 17.4608 16.3704L2.11114 21.9464C1.96346 22.0028 1.80261 22.0153 1.64799 21.9824C1.49337 21.9494 1.35161 21.8723 1.23982 21.7606C1.12803 21.6488 1.05099 21.507 1.01801 21.3524C0.985034 21.1978 0.997523 21.0369 1.05397 20.8892V20.8892Z" stroke="#26C483" stroke-width="2" stroke-linecap="round" stroke-linejoin="round"/>
<path d="M14.5381 6.804C14.5381 6.804 14.5381 4.31655 17.0255 4.31655C19.513 4.31655 19.513 1.8291 19.513 1.8291" stroke="#26C483" stroke-width="2" stroke-linecap="round" stroke-linejoin="round"/>
<path d="M7.73894 19.9045L3.0957 15.2612" stroke="#26C483" stroke-width="2" stroke-linecap="round" stroke-linejoin="round"/>
<path d="M12.0498 1V3.48745" stroke="#26C483" stroke-width="2" stroke-linecap="round" stroke-linejoin="round"/>
<path d="M19.5127 10.9497L21.171 12.608" stroke="#26C483" stroke-width="2" stroke-linecap="round" stroke-linejoin="round"/>
<path d="M19.5127 7.6331L22.0001 6.80396" stroke="#26C483" stroke-width="2" stroke-linecap="round" stroke-linejoin="round"/>
<path d="M5.08496 9.78906L13.2106 17.9147" stroke="#26C483" stroke-width="2" stroke-linecap="round" stroke-linejoin="round"/>
</svg>
