<svg width="21" height="21" viewBox="0 0 21 21" fill="none" xmlns="http://www.w3.org/2000/svg">
<path fill-rule="evenodd" clip-rule="evenodd" d="M10.5 19.6875C12.9367 19.6875 15.2736 18.7195 16.9965 16.9965C18.7195 15.2736 19.6875 12.9367 19.6875 10.5C19.6875 8.06332 18.7195 5.72645 16.9965 4.00346C15.2736 2.28047 12.9367 1.3125 10.5 1.3125C8.06332 1.3125 5.72645 2.28047 4.00346 4.00346C2.28047 5.72645 1.3125 8.06332 1.3125 10.5C1.3125 12.9367 2.28047 15.2736 4.00346 16.9965C5.72645 18.7195 8.06332 19.6875 10.5 19.6875ZM10.5 21C13.2848 21 15.9555 19.8938 17.9246 17.9246C19.8938 15.9555 21 13.2848 21 10.5C21 7.71523 19.8938 5.04451 17.9246 3.07538C15.9555 1.10625 13.2848 0 10.5 0C7.71523 0 5.04451 1.10625 3.07538 3.07538C1.10625 5.04451 0 7.71523 0 10.5C0 13.2848 1.10625 15.9555 3.07538 17.9246C5.04451 19.8938 7.71523 21 10.5 21Z" fill="#26C483"/>
<path d="M6.89062 7.91831H8.62313C8.62313 6.89325 9.22425 6.10181 10.4081 6.10181C11.3072 6.10181 12.1314 6.552 12.1314 7.63481C12.1314 8.46825 11.6406 8.8515 10.8649 9.43425C9.98156 10.0761 9.282 10.8255 9.33187 12.0422L9.34106 12.6499H11.0565V12.1839C11.0565 11.2416 11.4148 10.9673 12.3821 10.2336C13.1814 9.62588 14.0149 8.95125 14.0149 7.53506C14.0149 5.55188 12.3401 4.59375 10.5066 4.59375C8.76619 4.59375 6.84994 5.44294 6.89194 7.91831H6.89062ZM8.94075 15.1581C8.94075 15.8576 9.49856 16.3748 10.2664 16.3748C11.0657 16.3748 11.6156 15.8576 11.6156 15.1581C11.6156 14.4336 11.0644 13.9243 10.2651 13.9243C9.49856 13.9243 8.94075 14.4336 8.94075 15.1581Z" fill="#26C483"/>
</svg>
