<svg width="18" height="19" viewBox="0 0 18 19" fill="none" xmlns="http://www.w3.org/2000/svg">
<path fill-rule="evenodd" clip-rule="evenodd" d="M11.7468 12.6153C11.8513 12.5119 11.9753 12.4298 12.1119 12.3739C12.2485 12.3179 12.3949 12.2891 12.5427 12.2891C12.6906 12.2891 12.8369 12.3179 12.9735 12.3739C13.1101 12.4298 13.2342 12.5119 13.3386 12.6153L17.6698 16.8979C17.8809 17.1064 17.9996 17.3894 17.9997 17.6845C17.9998 17.9795 17.8813 18.2626 17.6704 18.4713C17.4594 18.68 17.1733 18.7973 16.8749 18.7974C16.5764 18.7976 16.2902 18.6804 16.0791 18.4719L11.7479 14.1893C11.6433 14.086 11.5603 13.9633 11.5037 13.8283C11.4471 13.6932 11.418 13.5485 11.418 13.4023C11.418 13.2561 11.4471 13.1114 11.5037 12.9763C11.5603 12.8413 11.6433 12.7186 11.7479 12.6153H11.7468Z" fill="#9C9C9C"/>
<path fill-rule="evenodd" clip-rule="evenodd" d="M7.3124 13.3483C8.12494 13.3483 8.92952 13.19 9.68022 12.8826C10.4309 12.5751 11.113 12.1245 11.6876 11.5564C12.2621 10.9883 12.7179 10.3138 13.0288 9.57156C13.3398 8.8293 13.4998 8.03374 13.4998 7.23032C13.4998 6.4269 13.3398 5.63134 13.0288 4.88908C12.7179 4.14681 12.2621 3.47237 11.6876 2.90427C11.113 2.33616 10.4309 1.88552 9.68022 1.57806C8.92952 1.2706 8.12494 1.11236 7.3124 1.11236C5.67139 1.11236 4.0976 1.75693 2.93723 2.90427C1.77687 4.05161 1.12498 5.60773 1.12498 7.23032C1.12498 8.8529 1.77687 10.409 2.93723 11.5564C4.0976 12.7037 5.67139 13.3483 7.3124 13.3483ZM14.6248 7.23032C14.6248 9.14792 13.8544 10.987 12.483 12.3429C11.1117 13.6989 9.25176 14.4606 7.3124 14.4606C5.37303 14.4606 3.51309 13.6989 2.14175 12.3429C0.770411 10.987 0 9.14792 0 7.23032C0 5.31272 0.770411 3.47366 2.14175 2.11771C3.51309 0.761764 5.37303 0 7.3124 0C9.25176 0 11.1117 0.761764 12.483 2.11771C13.8544 3.47366 14.6248 5.31272 14.6248 7.23032Z" fill="#9C9C9C"/>
</svg>
