<svg width="23" height="18" viewBox="0 0 23 18" fill="none" xmlns="http://www.w3.org/2000/svg">
<path fill-rule="evenodd" clip-rule="evenodd" d="M1.2615 0C0.983653 0 0.717183 0.112215 0.520713 0.31196C0.324243 0.511705 0.213867 0.782616 0.213867 1.0651V3.19529C0.213867 3.47777 0.324243 3.74868 0.520713 3.94843C0.717183 4.14817 0.983653 4.26039 1.2615 4.26039H3.35678C3.63463 4.26039 3.9011 4.14817 4.09757 3.94843C4.29404 3.74868 4.40441 3.47777 4.40441 3.19529V1.0651C4.40441 0.782616 4.29404 0.511705 4.09757 0.31196C3.9011 0.112215 3.63463 0 3.35678 0H1.2615Z" fill="white"/>
<path d="M6.5 2.36653C6.5 2.16251 6.58278 1.96685 6.73013 1.82259C6.87749 1.67833 7.07734 1.59729 7.28573 1.59729H21.4288C21.6372 1.59729 21.8371 1.67833 21.9844 1.82259C22.1318 1.96685 22.2145 2.16251 22.2145 2.36653C22.2145 2.57054 22.1318 2.7662 21.9844 2.91046C21.8371 3.05472 21.6372 3.13576 21.4288 3.13576H7.28573C7.07734 3.13576 6.87749 3.05472 6.73013 2.91046C6.58278 2.7662 6.5 2.57054 6.5 2.36653ZM7.28573 7.75119C7.07734 7.75119 6.87749 7.83223 6.73013 7.97649C6.58278 8.12075 6.5 8.31641 6.5 8.52042C6.5 8.72444 6.58278 8.9201 6.73013 9.06436C6.87749 9.20862 7.07734 9.28966 7.28573 9.28966H21.4288C21.6372 9.28966 21.8371 9.20862 21.9844 9.06436C22.1318 8.9201 22.2145 8.72444 22.2145 8.52042C22.2145 8.31641 22.1318 8.12075 21.9844 7.97649C21.8371 7.83223 21.6372 7.75119 21.4288 7.75119H7.28573ZM7.28573 13.9051C7.07734 13.9051 6.87749 13.9861 6.73013 14.1304C6.58278 14.2746 6.5 14.4703 6.5 14.6743C6.5 14.8783 6.58278 15.074 6.73013 15.2183C6.87749 15.3625 7.07734 15.4436 7.28573 15.4436H21.4288C21.6372 15.4436 21.8371 15.3625 21.9844 15.2183C22.1318 15.074 22.2145 14.8783 22.2145 14.6743C22.2145 14.4703 22.1318 14.2746 21.9844 14.1304C21.8371 13.9861 21.6372 13.9051 21.4288 13.9051H7.28573Z" fill="white"/>
<path fill-rule="evenodd" clip-rule="evenodd" d="M0.213867 7.45597C0.213867 7.17349 0.324243 6.90257 0.520713 6.70283C0.717183 6.50308 0.983653 6.39087 1.2615 6.39087H3.35678C3.63463 6.39087 3.9011 6.50308 4.09757 6.70283C4.29404 6.90257 4.40441 7.17349 4.40441 7.45597V9.58616C4.40441 9.86864 4.29404 10.1396 4.09757 10.3393C3.9011 10.539 3.63463 10.6513 3.35678 10.6513H1.2615C0.983653 10.6513 0.717183 10.539 0.520713 10.3393C0.324243 10.1396 0.213867 9.86864 0.213867 9.58616V7.45597ZM1.2615 12.7815C0.983653 12.7815 0.717183 12.8937 0.520713 13.0934C0.324243 13.2932 0.213867 13.5641 0.213867 13.8466V15.9767C0.213867 16.2592 0.324243 16.5301 0.520713 16.7299C0.717183 16.9296 0.983653 17.0418 1.2615 17.0418H3.35678C3.63463 17.0418 3.9011 16.9296 4.09757 16.7299C4.29404 16.5301 4.40441 16.2592 4.40441 15.9767V13.8466C4.40441 13.5641 4.29404 13.2932 4.09757 13.0934C3.9011 12.8937 3.63463 12.7815 3.35678 12.7815H1.2615Z" fill="white"/>
</svg>
