<svg width="23" height="21" viewBox="0 0 23 21" fill="none" xmlns="http://www.w3.org/2000/svg">
<path d="M2.75 11.894V19.3753C2.75 19.6074 2.84219 19.8299 3.00628 19.994C3.17038 20.1581 3.39294 20.2503 3.625 20.2503H19.375C19.6071 20.2503 19.8296 20.1581 19.9937 19.994C20.1578 19.8299 20.25 19.6074 20.25 19.3753V11.894" stroke="white" stroke-width="1.3" stroke-linecap="round" stroke-linejoin="round"/>
<path d="M3.40625 1H19.5938C19.7836 1.00156 19.9679 1.06405 20.1195 1.17826C20.2711 1.29247 20.382 1.45236 20.4359 1.63437L22 7.125H1L2.56406 1.63437C2.61796 1.45236 2.72889 1.29247 2.88051 1.17826C3.03213 1.06405 3.21643 1.00156 3.40625 1V1Z" stroke="white" stroke-width="1.3" stroke-linecap="round" stroke-linejoin="round"/>
<path d="M8 7.125V8.875C8 9.80326 7.63125 10.6935 6.97487 11.3499C6.3185 12.0063 5.42826 12.375 4.5 12.375C3.57174 12.375 2.6815 12.0063 2.02513 11.3499C1.36875 10.6935 1 9.80326 1 8.875V7.125" stroke="white" stroke-width="1.3" stroke-linecap="round" stroke-linejoin="round"/>
<path d="M15 7.125V8.875C15 9.80326 14.6313 10.6935 13.9749 11.3499C13.3185 12.0063 12.4283 12.375 11.5 12.375C10.5717 12.375 9.6815 12.0063 9.02513 11.3499C8.36875 10.6935 8 9.80326 8 8.875V7.125" stroke="white" stroke-width="1.3" stroke-linecap="round" stroke-linejoin="round"/>
<path d="M22 7.125V8.875C22 9.80326 21.6313 10.6935 20.9749 11.3499C20.3185 12.0063 19.4283 12.375 18.5 12.375C17.5717 12.375 16.6815 12.0063 16.0251 11.3499C15.3687 10.6935 15 9.80326 15 8.875V7.125" stroke="white" stroke-width="1.3" stroke-linecap="round" stroke-linejoin="round"/>
</svg>
