<svg width="22" height="21" viewBox="0 0 22 21" fill="none" xmlns="http://www.w3.org/2000/svg">
<path fill-rule="evenodd" clip-rule="evenodd" d="M2 17.9734V8.46992H3.46654V17.9734C3.46654 18.1673 3.5438 18.3532 3.68131 18.4903C3.81883 18.6274 4.00534 18.7045 4.19981 18.7045H17.3987C17.5932 18.7045 17.7797 18.6274 17.9172 18.4903C18.0547 18.3532 18.132 18.1673 18.132 17.9734V8.46992H19.5985V17.9734C19.5985 18.5551 19.3668 19.1129 18.9542 19.5242C18.5417 19.9355 17.9821 20.1665 17.3987 20.1665H4.19981C3.61639 20.1665 3.05686 19.9355 2.64431 19.5242C2.23177 19.1129 2 18.5551 2 17.9734ZM18.132 1.89058V7.00785L15.1989 4.0837V1.89058C15.1989 1.6967 15.2761 1.51076 15.4137 1.37366C15.5512 1.23657 15.7377 1.15955 15.9322 1.15955H17.3987C17.5932 1.15955 17.7797 1.23657 17.9172 1.37366C18.0547 1.51076 18.132 1.6967 18.132 1.89058Z" fill="white"/>
<path fill-rule="evenodd" clip-rule="evenodd" d="M9.96315 0.428076C10.2382 0.153979 10.6111 0 11 0C11.3889 0 11.7618 0.153979 12.0368 0.428076L21.785 10.145C21.9226 10.2823 22 10.4685 22 10.6626C22 10.8567 21.9226 11.0429 21.785 11.1802C21.6473 11.3175 21.4605 11.3946 21.2658 11.3946C21.0711 11.3946 20.8843 11.3175 20.7466 11.1802L11 1.46176L1.25335 11.1802C1.11567 11.3175 0.928919 11.3946 0.734198 11.3946C0.539476 11.3946 0.35273 11.3175 0.215042 11.1802C0.0773528 11.0429 0 10.8567 0 10.6626C0 10.4685 0.0773528 10.2823 0.215042 10.145L9.96315 0.428076Z" fill="white"/>
<path d="M8 12.5331H13.2381V18.7996H8V12.5331Z" fill="white"/>
</svg>
