<svg width="24" height="21" viewBox="0 0 24 21" fill="none" xmlns="http://www.w3.org/2000/svg">
<path d="M1.03906 1.90827V15.8951C1.03892 16.0202 1.07026 16.1435 1.13062 16.2555C1.19098 16.3675 1.2787 16.465 1.38687 16.5403C1.49505 16.6157 1.62071 16.6668 1.75395 16.6897C1.8872 16.7125 2.02438 16.7066 2.15469 16.6722L21.4047 11.4952C21.5876 11.4469 21.7485 11.345 21.863 11.2048C21.9774 11.0645 22.0393 10.8937 22.0391 10.7182V7.08522C22.0393 6.90968 21.9774 6.73886 21.863 6.59864C21.7485 6.45842 21.5876 6.35645 21.4047 6.30818L2.15469 1.13122C2.02438 1.09684 1.8872 1.09085 1.75395 1.11373C1.62071 1.13661 1.49505 1.18774 1.38687 1.26308C1.2787 1.33842 1.19098 1.43592 1.13062 1.54789C1.07026 1.65985 1.03892 1.78322 1.03906 1.90827Z" stroke="#26C483" stroke-width="2" stroke-linecap="round" stroke-linejoin="round"/>
<path d="M18.04 14.037V18.1859C18.04 18.4284 17.9347 18.6609 17.7471 18.8324C17.5596 19.0039 17.3053 19.1002 17.04 19.1002H13.04C12.7748 19.1002 12.5205 19.0039 12.3329 18.8324C12.1454 18.6609 12.04 18.4284 12.04 18.1859V4.27637" stroke="#26C483" stroke-width="2" stroke-linecap="round" stroke-linejoin="round"/>
</svg>
