<svg width="16" height="8" viewBox="0 0 16 8" fill="none" xmlns="http://www.w3.org/2000/svg">
<path fill-rule="evenodd" clip-rule="evenodd" d="M1.00427 1.12446C1.05441 1.08501 1.11397 1.05371 1.17954 1.03235C1.24512 1.01099 1.31541 1 1.38641 1C1.4574 1 1.5277 1.01099 1.59327 1.03235C1.65885 1.05371 1.71841 1.08501 1.76855 1.12446L7.8633 5.9092L13.9581 1.12446C14.0082 1.08507 14.0678 1.05383 14.1334 1.03251C14.1989 1.01119 14.2692 1.00022 14.3402 1.00022C14.4112 1.00022 14.4814 1.01119 14.547 1.03251C14.6126 1.05383 14.6721 1.08507 14.7223 1.12446C14.7725 1.16385 14.8123 1.21062 14.8395 1.26208C14.8666 1.31354 14.8806 1.3687 14.8806 1.42441C14.8806 1.48011 14.8666 1.53527 14.8395 1.58674C14.8123 1.6382 14.7725 1.68497 14.7223 1.72436L8.24544 6.80819C8.1953 6.84764 8.13574 6.87894 8.07017 6.9003C8.00459 6.92166 7.9343 6.93265 7.8633 6.93265C7.79231 6.93265 7.72201 6.92166 7.65644 6.9003C7.59086 6.87894 7.5313 6.84764 7.48116 6.80819L1.00427 1.72436C0.954008 1.685 0.914129 1.63825 0.886919 1.58678C0.859709 1.53531 0.845703 1.48013 0.845703 1.42441C0.845703 1.36868 0.859709 1.31351 0.886919 1.26204C0.914129 1.21057 0.954008 1.16382 1.00427 1.12446Z" fill="#F7F7F7" stroke="#F7F7F7"/>
</svg>
