<svg width="21" height="20" viewBox="0 0 21 20" fill="none" xmlns="http://www.w3.org/2000/svg">
<path fill-rule="evenodd" clip-rule="evenodd" d="M2.10059 17.209V8.10976H3.50047V17.209C3.50047 17.3946 3.57421 17.5727 3.70548 17.7039C3.83674 17.8352 4.01477 17.9089 4.20041 17.9089H16.7993C16.985 17.9089 17.163 17.8352 17.2943 17.7039C17.4255 17.5727 17.4993 17.3946 17.4993 17.209V8.10976H18.8992V17.209C18.8992 17.7659 18.6779 18.3 18.2841 18.6938C17.8904 19.0876 17.3563 19.3088 16.7993 19.3088H4.20041C3.6435 19.3088 3.1094 19.0876 2.71561 18.6938C2.32182 18.3 2.10059 17.7659 2.10059 17.209ZM17.4993 1.81029V6.70988L14.6995 3.91012V1.81029C14.6995 1.62466 14.7733 1.44662 14.9045 1.31536C15.0358 1.1841 15.2138 1.11035 15.3995 1.11035H16.7993C16.985 1.11035 17.163 1.1841 17.2943 1.31536C17.4255 1.44662 17.4993 1.62466 17.4993 1.81029Z" fill="#26C483"/>
<path fill-rule="evenodd" clip-rule="evenodd" d="M9.51028 0.409867C9.7728 0.147429 10.1288 0 10.5 0C10.8712 0 11.2272 0.147429 11.4897 0.409867L20.7947 9.71348C20.9262 9.84491 21 10.0232 21 10.209C21 10.3949 20.9262 10.5732 20.7947 10.7046C20.6633 10.836 20.485 10.9099 20.2992 10.9099C20.1133 10.9099 19.935 10.836 19.8036 10.7046L10.5 1.39958L1.19638 10.7046C1.06495 10.836 0.886696 10.9099 0.700825 10.9099C0.514955 10.9099 0.336697 10.836 0.205267 10.7046C0.0738368 10.5732 0 10.3949 0 10.209C0 10.0232 0.0738368 9.84491 0.205267 9.71348L9.51028 0.409867Z" fill="#26C483"/>
<rect x="8" y="12" width="5" height="6" fill="#26C483"/>
</svg>
