<svg width="22" height="17" viewBox="0 0 22 17" fill="none" xmlns="http://www.w3.org/2000/svg">
<path fill-rule="evenodd" clip-rule="evenodd" d="M1.00117 0.160156C0.735644 0.160156 0.480992 0.267395 0.293236 0.45828C0.10548 0.649165 0 0.908061 0 1.17801V3.21373C0 3.48368 0.10548 3.74258 0.293236 3.93346C0.480992 4.12435 0.735644 4.23159 1.00117 4.23159H3.00351C3.26904 4.23159 3.52369 4.12435 3.71145 3.93346C3.8992 3.74258 4.00468 3.48368 4.00468 3.21373V1.17801C4.00468 0.908061 3.8992 0.649165 3.71145 0.45828C3.52369 0.267395 3.26904 0.160156 3.00351 0.160156H1.00117Z" fill="#26C483"/>
<path d="M6.00684 2.42164C6.00684 2.22668 6.08595 2.0397 6.22676 1.90183C6.36758 1.76397 6.55857 1.68652 6.75771 1.68652H20.2735C20.4727 1.68652 20.6637 1.76397 20.8045 1.90183C20.9453 2.0397 21.0244 2.22668 21.0244 2.42164C21.0244 2.61661 20.9453 2.80359 20.8045 2.94145C20.6637 3.07931 20.4727 3.15676 20.2735 3.15676H6.75771C6.55857 3.15676 6.36758 3.07931 6.22676 2.94145C6.08595 2.80359 6.00684 2.61661 6.00684 2.42164ZM6.75771 7.56748C6.55857 7.56748 6.36758 7.64493 6.22676 7.78279C6.08595 7.92065 6.00684 8.10763 6.00684 8.30259C6.00684 8.49756 6.08595 8.68454 6.22676 8.8224C6.36758 8.96026 6.55857 9.03771 6.75771 9.03771H20.2735C20.4727 9.03771 20.6637 8.96026 20.8045 8.8224C20.9453 8.68454 21.0244 8.49756 21.0244 8.30259C21.0244 8.10763 20.9453 7.92065 20.8045 7.78279C20.6637 7.64493 20.4727 7.56748 20.2735 7.56748H6.75771ZM6.75771 13.4484C6.55857 13.4484 6.36758 13.5259 6.22676 13.6637C6.08595 13.8016 6.00684 13.9886 6.00684 14.1835C6.00684 14.3785 6.08595 14.5655 6.22676 14.7034C6.36758 14.8412 6.55857 14.9187 6.75771 14.9187H20.2735C20.4727 14.9187 20.6637 14.8412 20.8045 14.7034C20.9453 14.5655 21.0244 14.3785 21.0244 14.1835C21.0244 13.9886 20.9453 13.8016 20.8045 13.6637C20.6637 13.5259 20.4727 13.4484 20.2735 13.4484H6.75771Z" fill="#26C483"/>
<path fill-rule="evenodd" clip-rule="evenodd" d="M0 7.28544C0 7.01548 0.10548 6.75659 0.293236 6.5657C0.480992 6.37482 0.735644 6.26758 1.00117 6.26758H3.00351C3.26904 6.26758 3.52369 6.37482 3.71145 6.5657C3.8992 6.75659 4.00468 7.01548 4.00468 7.28544V9.32115C4.00468 9.5911 3.8992 9.85 3.71145 10.0409C3.52369 10.2318 3.26904 10.339 3.00351 10.339H1.00117C0.735644 10.339 0.480992 10.2318 0.293236 10.0409C0.10548 9.85 0 9.5911 0 9.32115V7.28544ZM1.00117 12.3747C0.735644 12.3747 0.480992 12.482 0.293236 12.6728C0.10548 12.8637 0 13.1226 0 13.3926V15.4283C0 15.6982 0.10548 15.9571 0.293236 16.148C0.480992 16.3389 0.735644 16.4461 1.00117 16.4461H3.00351C3.26904 16.4461 3.52369 16.3389 3.71145 16.148C3.8992 15.9571 4.00468 15.6982 4.00468 15.4283V13.3926C4.00468 13.1226 3.8992 12.8637 3.71145 12.6728C3.52369 12.482 3.26904 12.3747 3.00351 12.3747H1.00117Z" fill="#26C483"/>
</svg>
