<svg width="21" height="21" viewBox="0 0 21 21" fill="none" xmlns="http://www.w3.org/2000/svg">
<path d="M8.61683 4.77273V7.63636L12.435 3.81818L8.61683 0V2.86364C4.39774 2.86364 0.980469 6.28091 0.980469 10.5C0.980469 11.9986 1.41956 13.3923 2.16411 14.5664L3.55774 13.1727C3.1282 12.3805 2.88956 11.4641 2.88956 10.5C2.88956 7.34045 5.45729 4.77273 8.61683 4.77273ZM15.0696 6.43364L13.6759 7.82727C14.0959 8.62909 14.3441 9.53591 14.3441 10.5C14.3441 13.6595 11.7764 16.2273 8.61683 16.2273V13.3636L4.79865 17.1818L8.61683 21V18.1364C12.8359 18.1364 16.2532 14.7191 16.2532 10.5C16.2532 9.00136 15.8141 7.60773 15.0696 6.43364Z" fill="#9C9C9C"/>
</svg>
