<svg width="44" height="44" viewBox="0 0 44 44" fill="none" xmlns="http://www.w3.org/2000/svg">
<g clip-path="url(#clip0_4197_13374)">
<path d="M18.9679 26.1593C18.6837 26.3077 18.3613 26.0476 18.4187 25.7156L19.0297 22.1707L16.4364 19.6556C16.1942 19.4203 16.3201 18.9901 16.6447 18.9436L20.2501 18.422L21.8578 15.1792C22.0028 14.8869 22.3951 14.8869 22.5401 15.1792L24.1478 18.422L27.7532 18.9436C28.0778 18.9901 28.2037 19.4203 27.9615 19.6556L25.3682 22.1707L25.9792 25.7156C26.0366 26.0476 25.7142 26.3077 25.4301 26.1593L22.1979 24.4685L18.9671 26.1593H18.9679Z" fill="#DEDEDE"/>
<path d="M6.17782 26.1593C5.89368 26.3077 5.57127 26.0476 5.62869 25.7156L6.23965 22.1707L3.64637 19.6556C3.4042 19.4203 3.53007 18.9901 3.85469 18.9436L7.4601 18.422L9.06774 15.1792C9.21275 14.8869 9.60509 14.8869 9.7501 15.1792L11.3577 18.422L14.9631 18.9436C15.2878 18.9901 15.4136 19.4203 15.1715 19.6556L12.5782 22.1707L13.1892 25.7156C13.2466 26.0476 12.9242 26.3077 12.64 26.1593L9.40781 24.4685L6.17782 26.1593Z" fill="#DEDEDE"/>
<path fill-rule="evenodd" clip-rule="evenodd" d="M33.0895 18.3871L34.7173 15.1766C34.7486 15.112 34.7974 15.0575 34.8583 15.0192C34.9192 14.9809 34.9896 14.9604 35.0617 14.96C35.198 14.96 35.3344 15.0319 35.4082 15.1766L37.036 18.3871L40.6866 18.9035C40.7776 18.9177 40.8608 18.9627 40.9223 19.031C40.9839 19.0993 41.0198 19.1866 41.0242 19.2781C41.0293 19.3391 41.0205 19.4004 40.9986 19.4576C40.9767 19.5147 40.9421 19.5663 40.8975 19.6083L38.2717 22.0983L38.8904 25.6078C38.9485 25.9365 38.622 26.1939 38.3343 26.047L35.0617 24.3732L31.7905 26.047C31.7562 26.0647 31.7196 26.0772 31.6816 26.0841C31.4275 26.1286 31.1838 25.8957 31.2344 25.6078L31.8531 22.0983L29.228 19.6083C29.1874 19.5698 29.1551 19.5234 29.1332 19.472C29.1112 19.4205 29.1001 19.3652 29.1006 19.3093C29.1008 19.2304 29.1224 19.1529 29.1632 19.0852C29.1926 19.0363 29.2326 18.9946 29.2803 18.9631C29.3281 18.9317 29.3823 18.9113 29.439 18.9035L33.0895 18.3871ZM35.0617 23.5125C35.1213 23.5125 35.1809 23.5258 35.2346 23.554L37.9818 24.9593L37.4646 22.0234C37.4524 21.9558 37.4571 21.8863 37.4783 21.8209C37.4995 21.7556 37.5365 21.6964 37.586 21.6487L39.7519 19.5935L36.7319 19.1661C36.6694 19.1567 36.6101 19.1324 36.559 19.0951C36.508 19.0579 36.4668 19.009 36.439 18.9524L35.0631 16.2384L35.0617 16.2406V23.5118V23.5125Z" fill="#DEDEDE"/>
<path d="M1.31982 40.9709L1.9948 41.5951C2.16713 41.4733 2.3251 41.42 2.41845 41.3895C4.11306 40.8034 5.60662 39.89 6.59035 38.6493L6.08053 37.7816C5.16142 38.9766 3.56016 39.9509 2.38973 40.3011C2.38973 39.7226 2.38973 37.1879 2.38973 36.343C2.38973 36.0538 2.41845 35.7721 2.45435 35.4829H1.327C1.37009 35.696 1.41317 36.0614 1.41317 36.343C1.41317 37.1955 1.41317 39.8977 1.41317 40.4761C1.41317 40.6512 1.39881 40.7806 1.31982 40.9709Z" fill="#DEDEDE"/>
<path d="M12.3994 35.1023L11.8322 35.3535C12.026 35.6503 12.2414 36.0994 12.3922 36.4115L12.9667 36.1451C12.8303 35.8635 12.5789 35.3839 12.3994 35.1023ZM13.2467 34.7598L12.6795 35.011C12.8733 35.3002 13.1103 35.7417 13.2539 36.0614L13.8284 35.795C13.6991 35.5285 13.4334 35.049 13.2467 34.7598ZM9.29742 35.4372H8.24188C8.2706 35.6656 8.29214 36.0538 8.29214 36.2288C8.29214 36.7007 8.29214 39.4942 8.29214 40.3696C8.29214 41.0318 8.65835 41.3895 9.27588 41.5113C9.58464 41.5646 10.0227 41.5951 10.4894 41.5951C11.2793 41.5951 12.3635 41.5494 13.0457 41.4428V40.3315C12.4497 40.499 11.2936 40.5903 10.5397 40.5903C10.2237 40.5903 9.92931 40.5827 9.71389 40.5446C9.39077 40.4838 9.24716 40.4 9.24716 40.0651C9.24716 39.4942 9.24716 36.6931 9.24716 36.2288C9.24716 36.0081 9.2687 35.6656 9.29742 35.4372ZM8.8235 37.774L8.83069 38.7711C9.80724 38.5276 11.2146 38.0785 12.0619 37.7359C12.2989 37.637 12.622 37.4924 12.8949 37.3706L12.5143 36.4115C12.2271 36.5866 11.9829 36.7084 11.7316 36.8225C10.9777 37.1498 9.7498 37.5609 8.8235 37.774Z" fill="#DEDEDE"/>
<path d="M19.7236 37.6446L19.0343 37.2868C18.9409 37.3401 18.6465 37.3706 18.5029 37.3706C18.1582 37.3706 17.0237 37.3706 16.6575 37.3706C16.4708 37.3706 16.1405 37.3477 15.9466 37.3173V38.322C16.1549 38.3068 16.4421 38.2916 16.6647 38.2916C16.8729 38.2916 18.2659 38.2916 18.6106 38.2916C18.5747 38.8016 18.3593 40.2706 18.2659 40.773H19.2569C19.343 40.225 19.5872 38.4971 19.659 37.9643C19.6661 37.8806 19.6949 37.7435 19.7236 37.6446ZM15.2932 40.4V41.3972C15.5589 41.3819 15.7456 41.3743 15.9969 41.3743C16.3631 41.3743 19.4076 41.3743 19.781 41.3743C19.9677 41.3743 20.3196 41.3819 20.4704 41.3895V40.4076C20.2837 40.4305 19.9462 40.4457 19.7667 40.4457C19.4148 40.4457 16.4277 40.4457 15.9969 40.4457C15.7527 40.4457 15.4799 40.4229 15.2932 40.4Z" fill="#DEDEDE"/>
<path d="M22.1147 37.7435V38.9462C22.3876 38.9234 22.8687 38.9005 23.2708 38.9005C24.1181 38.9005 26.4805 38.9005 27.1339 38.9005C27.4355 38.9005 27.8017 38.9386 27.974 38.9462V37.7435C27.7802 37.7588 27.4642 37.7968 27.1267 37.7968C26.4877 37.7968 24.1181 37.7968 23.2708 37.7968C22.8974 37.7968 22.3804 37.7664 22.1147 37.7435Z" fill="#DEDEDE"/>
<path d="M34.6161 36.2821C34.5443 36.8378 34.3791 37.6065 34.2211 38.0937L34.8817 38.2688C35.0613 37.8121 35.2551 37.0966 35.4346 36.4572L34.6161 36.2821ZM31.8803 36.5028C32.0239 37.0661 32.1531 37.8044 32.1675 38.284L32.8999 38.1089C32.864 37.6294 32.7276 36.9063 32.5696 36.343L31.8803 36.5028ZM31.8085 35.186V36.0309H35.4705V35.186H31.8085ZM31.5643 38.4819V39.3496H35.5998V38.4819H31.5643ZM33.1512 35.4829V41.9452H33.9985V35.4829H33.1512ZM29.2019 37.1422V37.8273H31.4207V37.1422H29.2019ZM29.2235 35.0414V35.7341H31.4064V35.0414H29.2235ZM29.2019 38.1774V38.8701H31.4207V38.1774H29.2019ZM28.8501 36.069V36.7921H31.6792V36.069H28.8501ZM29.5969 39.2354V39.9585H30.6739V40.8263H29.5969V41.5494H31.4135V39.2354H29.5969ZM29.1804 39.2354V41.8539H29.9056V39.2354H29.1804Z" fill="#DEDEDE"/>
<path d="M38.0914 35.5514V36.3734H42.6798V35.5514H38.0914ZM38.1633 37.3249V41.793H38.9531V38.1165H41.811V41.7473H42.6367V37.3249H38.1633ZM39.3265 35.6579V37.911H40.1307V35.6579H39.3265ZM40.6046 35.6503V37.9034H41.4232V35.6503H40.6046ZM38.5223 40.5675V41.3515H42.4213V40.5675H38.5223ZM39.4055 37.9034V41.1764H40.1307V37.9034H39.4055ZM40.6046 37.9034V41.1688H41.3299V37.9034H40.6046ZM37.4667 34.8207C37.1149 35.8787 36.5261 36.9291 35.9014 37.5989C36.045 37.8197 36.2748 38.2992 36.3466 38.5123C37.0933 37.6674 37.8042 36.3354 38.2422 35.0871L37.4667 34.8207ZM36.7846 36.9443V41.9528H37.5888V36.0994V36.0918L36.7846 36.9443Z" fill="#DEDEDE"/>
</g>
<defs>
<clipPath id="clip0_4197_13374">
<rect width="44" height="44" fill="white"/>
</clipPath>
</defs>
</svg>
