<svg width="44" height="44" viewBox="0 0 44 44" fill="none" xmlns="http://www.w3.org/2000/svg">
<path fill-rule="evenodd" clip-rule="evenodd" d="M21.9998 29.752C25.0631 29.752 28.0008 28.5488 30.1669 26.407C32.3329 24.2653 33.5498 21.3605 33.5498 18.3316C33.5498 15.3028 32.3329 12.3979 30.1669 10.2562C28.0008 8.11448 25.0631 6.91126 21.9998 6.91126C18.9366 6.91126 15.9988 8.11448 13.8327 10.2562C11.6667 12.3979 10.4498 15.3028 10.4498 18.3316C10.4498 21.3605 11.6667 24.2653 13.8327 26.407C15.9988 28.5488 18.9366 29.752 21.9998 29.752ZM21.9998 31.3835C25.5007 31.3835 28.8581 30.0084 31.3336 27.5607C33.8091 25.113 35.1998 21.7932 35.1998 18.3316C35.1998 14.8701 33.8091 11.5503 31.3336 9.10258C28.8581 6.65489 25.5007 5.27979 21.9998 5.27979C18.4989 5.27979 15.1415 6.65489 12.666 9.10258C10.1905 11.5503 8.7998 14.8701 8.7998 18.3316C8.7998 21.7932 10.1905 25.113 12.666 27.5607C15.1415 30.0084 18.4989 31.3835 21.9998 31.3835Z" fill="#DEDEDE"/>
<path d="M23.5343 16.0278L19.7558 16.4961L19.6205 17.116L20.363 17.2514C20.8481 17.3656 20.9438 17.5386 20.8382 18.0166L19.6205 23.6746C19.3004 25.138 19.7938 25.8265 20.9537 25.8265C21.853 25.8265 22.8974 25.4154 23.371 24.8509L23.5162 24.1722C23.1862 24.4593 22.7044 24.5735 22.3843 24.5735C21.9305 24.5735 21.7655 24.2586 21.8827 23.7039L23.5343 16.0278Z" fill="#DEDEDE"/>
<path d="M21.9996 14.2527C22.9109 14.2527 23.6496 13.5223 23.6496 12.6212C23.6496 11.7202 22.9109 10.9897 21.9996 10.9897C21.0883 10.9897 20.3496 11.7202 20.3496 12.6212C20.3496 13.5223 21.0883 14.2527 21.9996 14.2527Z" fill="#DEDEDE"/>
<path d="M11.0863 35.6433H10.1148C10.1359 35.77 10.157 36.122 10.157 36.2628C10.157 36.5867 10.15 37.4596 10.15 38.2622C10.15 39.114 10.1852 40.0926 10.1852 40.4587C10.1852 40.7051 10.0937 40.7614 9.96696 40.7614C9.78392 40.7614 9.45304 40.5713 9.45304 40.346C9.45304 40.0433 9.9036 39.6631 10.5372 39.4238C11.0863 39.2055 11.7058 39.0788 12.3042 39.0788C12.9167 39.0788 13.3391 39.3534 13.3391 39.8391C13.3391 40.346 12.8815 40.6347 12.3113 40.7332C12.0719 40.7825 11.7622 40.7825 11.4524 40.7825L11.7692 41.6977C12.0578 41.6695 12.3746 41.6484 12.6985 41.578C13.8178 41.3035 14.2543 40.6769 14.2543 39.8391C14.2543 38.8676 13.3954 38.3044 12.3113 38.3044C11.7762 38.3044 11.0652 38.4171 10.4386 38.6423C9.46008 38.9873 8.58008 39.7054 8.58008 40.3883C8.58008 41.1345 9.5516 41.7259 10.2345 41.7259C10.6991 41.7259 11.0089 41.4865 11.0089 40.6206C11.0089 40.2123 10.9666 38.9943 10.9666 38.227C10.9666 37.5723 10.9878 36.8119 11.023 36.2558C11.03 36.0798 11.0582 35.7771 11.0863 35.6433ZM13.0927 36.4107L12.7055 37.0935C13.142 37.3047 14.0572 37.8327 14.3951 38.1143L14.8246 37.3963C14.4444 37.1287 13.6278 36.6711 13.0927 36.4107ZM8.77016 36.7979L8.79128 37.6497C9.03064 37.6779 9.3052 37.6849 9.76984 37.6849C10.3894 37.6849 11.5228 37.5582 12.3183 37.3751L12.2972 36.5022C11.5721 36.7134 10.4738 36.8471 9.74168 36.8471C9.48824 36.8471 9.18552 36.8471 8.77016 36.7979Z" fill="#DEDEDE"/>
<path d="M19.2034 40.4868V41.2753H21.1324V40.4868H19.2034ZM18.8233 35.9883V41.7892H19.6399V36.7838H20.6678V41.6907H21.5266V35.9883H18.8233ZM16.6268 36.65V37.9947C16.6268 39.0295 16.5001 40.4094 15.2118 41.3387C15.3807 41.4583 15.7046 41.7963 15.8102 41.9723C17.2252 40.9444 17.4786 39.2055 17.4786 38.0087V36.65H16.6268ZM16.0495 36.2769V37.0583H18.4642V36.2769H16.0495ZM15.3174 38.1707V38.9732H18.6402V38.1707H15.3174ZM17.2674 39.1633L16.7535 39.642C17.1126 40.0574 17.8025 40.9303 18.1334 41.4513L18.7036 40.7403C18.4854 40.4798 17.5561 39.4167 17.2674 39.1633ZM15.9721 35.3828C15.8313 36.1924 15.5638 37.002 15.1836 37.5089C15.3666 37.6215 15.7116 37.8609 15.8594 37.9947C16.2607 37.4033 16.5986 36.474 16.7817 35.5447L15.9721 35.3828Z" fill="#DEDEDE"/>
<path d="M24.4412 35.6926L24.223 36.5444C24.7721 36.6852 26.335 37.0091 27.053 37.1076L27.2642 36.2417C26.6447 36.1783 25.11 35.9038 24.4412 35.6926ZM24.4905 37.1076L23.5401 36.9809C23.4978 37.8539 23.3289 39.2337 23.1881 39.9236L24.0047 40.1207C24.061 39.9799 24.1385 39.8673 24.2652 39.7195C24.7087 39.1844 25.4198 38.8887 26.2153 38.8887C26.8348 38.8887 27.2642 39.2196 27.2642 39.6772C27.2642 40.5783 26.1519 41.0923 24.0329 40.7966L24.3074 41.7188C27.229 41.9723 28.2498 40.9867 28.2498 39.6983C28.2498 38.8465 27.5318 38.0862 26.2998 38.0862C25.5606 38.0862 24.8566 38.2974 24.223 38.762C24.2722 38.3537 24.3919 37.5019 24.4905 37.1076Z" fill="#DEDEDE"/>
<path d="M34.385 35.8404H33.4346C33.4557 35.9742 33.4839 36.3051 33.4839 36.4881C33.4839 36.9035 33.4839 37.3118 33.4839 37.6779C33.4698 38.1636 33.4557 38.6705 33.4205 38.938C33.3994 39.0788 33.336 39.0999 33.2023 39.0999C33.0615 39.0999 32.7658 39.0647 32.5475 39.0155L32.5335 39.7899C32.7728 39.8321 33.3431 39.8955 33.5895 39.8955C33.9485 39.8955 34.1315 39.8039 34.209 39.4308C34.2794 39.0718 34.3005 38.3115 34.3146 37.6849C34.3287 37.3259 34.3287 36.9246 34.3427 36.4459C34.3498 36.2628 34.3639 35.9531 34.385 35.8404ZM31.6112 36.0516H30.6186C30.6538 36.298 30.6749 36.5374 30.6749 36.8331C30.6749 37.2555 30.6679 39.3956 30.6819 40.0011C30.7101 41.219 30.9354 41.6062 32.7517 41.6062C33.4275 41.6062 34.2864 41.5428 34.7581 41.4935L34.7933 40.5291C34.2723 40.6276 33.3783 40.7121 32.6883 40.7121C31.6323 40.7121 31.576 40.5572 31.5549 39.8603C31.5408 39.283 31.569 37.4244 31.569 36.7838C31.569 36.4811 31.5831 36.2839 31.6112 36.0516ZM29.2599 37.6427L29.3514 38.5367C29.5415 38.5086 29.9779 38.4452 30.1962 38.4171C31.0128 38.3255 33.7514 38.0299 34.8496 37.9947C35.0327 37.9947 35.4058 37.9806 35.5325 37.9876V37.1287C35.3213 37.1428 35.0467 37.1639 34.8567 37.178C33.4979 37.2625 30.8509 37.523 30.1399 37.5863C29.7808 37.6286 29.457 37.6427 29.2599 37.6427Z" fill="#DEDEDE"/>
</svg>
