<svg width="44" height="44" viewBox="0 0 44 44" fill="none" xmlns="http://www.w3.org/2000/svg">
<rect width="44" height="44" rx="5" fill="#A6FFD7" fill-opacity="0.32"/>
<path fill-rule="evenodd" clip-rule="evenodd" d="M21.9998 29.752C25.0631 29.752 28.0008 28.5488 30.1669 26.407C32.3329 24.2653 33.5498 21.3605 33.5498 18.3316C33.5498 15.3028 32.3329 12.3979 30.1669 10.2562C28.0008 8.11448 25.0631 6.91126 21.9998 6.91126C18.9366 6.91126 15.9988 8.11448 13.8327 10.2562C11.6667 12.3979 10.4498 15.3028 10.4498 18.3316C10.4498 21.3605 11.6667 24.2653 13.8327 26.407C15.9988 28.5488 18.9366 29.752 21.9998 29.752ZM21.9998 31.3835C25.5007 31.3835 28.8581 30.0084 31.3336 27.5607C33.8091 25.113 35.1998 21.7932 35.1998 18.3316C35.1998 14.8701 33.8091 11.5503 31.3336 9.10258C28.8581 6.65489 25.5007 5.27979 21.9998 5.27979C18.4989 5.27979 15.1415 6.65489 12.666 9.10258C10.1905 11.5503 8.7998 14.8701 8.7998 18.3316C8.7998 21.7932 10.1905 25.113 12.666 27.5607C15.1415 30.0084 18.4989 31.3835 21.9998 31.3835Z" fill="#53E2A4"/>
<path d="M23.5343 16.0278L19.7558 16.4961L19.6205 17.116L20.363 17.2514C20.8481 17.3656 20.9438 17.5386 20.8382 18.0166L19.6205 23.6746C19.3004 25.138 19.7938 25.8265 20.9537 25.8265C21.853 25.8265 22.8974 25.4154 23.371 24.8509L23.5162 24.1722C23.1862 24.4593 22.7044 24.5735 22.3843 24.5735C21.9305 24.5735 21.7655 24.2586 21.8827 23.7039L23.5343 16.0278Z" fill="#53E2A4"/>
<path d="M21.9996 14.2527C22.9109 14.2527 23.6496 13.5223 23.6496 12.6212C23.6496 11.7202 22.9109 10.9897 21.9996 10.9897C21.0883 10.9897 20.3496 11.7202 20.3496 12.6212C20.3496 13.5223 21.0883 14.2527 21.9996 14.2527Z" fill="#53E2A4"/>
<path d="M10.5306 35.6541H9.51859C9.54059 35.7861 9.56259 36.1528 9.56259 36.2995C9.56259 36.6368 9.55526 37.5461 9.55526 38.3821C9.55526 39.2695 9.59192 40.2888 9.59192 40.6701C9.59192 40.9268 9.49659 40.9855 9.36459 40.9855C9.17392 40.9855 8.82926 40.7875 8.82926 40.5528C8.82926 40.2375 9.29859 39.8415 9.95859 39.5921C10.5306 39.3648 11.1759 39.2328 11.7993 39.2328C12.4373 39.2328 12.8773 39.5188 12.8773 40.0248C12.8773 40.5528 12.4006 40.8535 11.8066 40.9561C11.5573 41.0075 11.2346 41.0075 10.9119 41.0075L11.2419 41.9608C11.5426 41.9315 11.8726 41.9095 12.2099 41.8361C13.3759 41.5501 13.8306 40.8975 13.8306 40.0248C13.8306 39.0128 12.9359 38.4261 11.8066 38.4261C11.2493 38.4261 10.5086 38.5435 9.85592 38.7781C8.83659 39.1375 7.91992 39.8855 7.91992 40.5968C7.91992 41.3741 8.93192 41.9901 9.64326 41.9901C10.1273 41.9901 10.4499 41.7408 10.4499 40.8388C10.4499 40.4135 10.4059 39.1448 10.4059 38.3455C10.4059 37.6635 10.4279 36.8715 10.4646 36.2921C10.4719 36.1088 10.5013 35.7935 10.5306 35.6541ZM12.6206 36.4535L12.2173 37.1648C12.6719 37.3848 13.6253 37.9348 13.9773 38.2281L14.4246 37.4801C14.0286 37.2015 13.1779 36.7248 12.6206 36.4535ZM8.11792 36.8568L8.13992 37.7441C8.38926 37.7735 8.67526 37.7808 9.15926 37.7808C9.80459 37.7808 10.9853 37.6488 11.8139 37.4581L11.7919 36.5488C11.0366 36.7688 9.89259 36.9081 9.12992 36.9081C8.86592 36.9081 8.55059 36.9081 8.11792 36.8568Z" fill="#53E2A4"/>
<path d="M18.9859 40.6995V41.5208H20.9953V40.6995H18.9859ZM18.5899 36.0135V42.0561H19.4406V36.8421H20.5113V41.9535H21.4059V36.0135H18.5899ZM16.3019 36.7028V38.1035C16.3019 39.1815 16.1699 40.6188 14.8279 41.5868C15.0039 41.7115 15.3413 42.0635 15.4513 42.2468C16.9253 41.1761 17.1893 39.3648 17.1893 38.1181V36.7028H16.3019ZM15.7006 36.3141V37.1281H18.2159V36.3141H15.7006ZM14.9379 38.2868V39.1228H18.3993V38.2868H14.9379ZM16.9693 39.3208L16.4339 39.8195C16.8079 40.2521 17.5266 41.1615 17.8713 41.7041L18.4653 40.9635C18.2379 40.6921 17.2699 39.5848 16.9693 39.3208ZM15.6199 35.3828C15.4733 36.2261 15.1946 37.0695 14.7986 37.5975C14.9893 37.7148 15.3486 37.9641 15.5026 38.1035C15.9206 37.4875 16.2726 36.5195 16.4633 35.5515L15.6199 35.3828Z" fill="#53E2A4"/>
<path d="M24.4419 35.7055L24.2146 36.5928C24.7866 36.7395 26.4146 37.0768 27.1626 37.1795L27.3826 36.2775C26.7373 36.2115 25.1386 35.9255 24.4419 35.7055ZM24.4933 37.1795L23.5033 37.0475C23.4593 37.9568 23.2833 39.3941 23.1366 40.1128L23.9873 40.3181C24.0459 40.1715 24.1266 40.0541 24.2586 39.9001C24.7206 39.3428 25.4613 39.0348 26.2899 39.0348C26.9353 39.0348 27.3826 39.3795 27.3826 39.8561C27.3826 40.7948 26.2239 41.3301 24.0166 41.0221L24.3026 41.9828C27.3459 42.2468 28.4093 41.2201 28.4093 39.8781C28.4093 38.9908 27.6613 38.1988 26.3779 38.1988C25.6079 38.1988 24.8746 38.4188 24.2146 38.9028C24.2659 38.4775 24.3906 37.5901 24.4933 37.1795Z" fill="#53E2A4"/>
<path d="M34.8 35.8595H33.81C33.832 35.9988 33.8614 36.3435 33.8614 36.5341C33.8614 36.9668 33.8614 37.3921 33.8614 37.7735C33.8467 38.2795 33.832 38.8075 33.7954 39.0861C33.7734 39.2328 33.7074 39.2548 33.568 39.2548C33.4214 39.2548 33.1134 39.2181 32.886 39.1668L32.8714 39.9735C33.1207 40.0175 33.7147 40.0835 33.9714 40.0835C34.3454 40.0835 34.536 39.9881 34.6167 39.5995C34.69 39.2255 34.712 38.4335 34.7267 37.7808C34.7414 37.4068 34.7414 36.9888 34.756 36.4901C34.7634 36.2995 34.778 35.9768 34.8 35.8595ZM31.9107 36.0795H30.8767C30.9134 36.3361 30.9354 36.5855 30.9354 36.8935C30.9354 37.3335 30.928 39.5628 30.9427 40.1935C30.972 41.4621 31.2067 41.8655 33.0987 41.8655C33.8027 41.8655 34.6974 41.7995 35.1887 41.7481L35.2254 40.7435C34.6827 40.8461 33.7514 40.9341 33.0327 40.9341C31.9327 40.9341 31.874 40.7728 31.852 40.0468C31.8374 39.4455 31.8667 37.5095 31.8667 36.8421C31.8667 36.5268 31.8814 36.3215 31.9107 36.0795ZM29.4614 37.7368L29.5567 38.6681C29.7547 38.6388 30.2094 38.5728 30.4367 38.5435C31.2874 38.4481 34.14 38.1401 35.284 38.1035C35.4747 38.1035 35.8634 38.0888 35.9954 38.0961V37.2015C35.7754 37.2161 35.4894 37.2381 35.2914 37.2528C33.876 37.3408 31.1187 37.6121 30.378 37.6781C30.004 37.7221 29.6667 37.7368 29.4614 37.7368Z" fill="#53E2A4"/>
</svg>
