<svg width="44" height="44" viewBox="0 0 44 44" fill="none" xmlns="http://www.w3.org/2000/svg">
<rect width="44" height="44" rx="5" fill="#A6FFD7" fill-opacity="0.32"/>
<path d="M9.43481 30.874C9.10439 31.1905 8.57209 30.9551 8.52793 30.4721L8.05358 25.3154L3.61659 22.8343C3.20208 22.602 3.21459 21.9561 3.6373 21.7653L8.33005 19.6387L9.31686 14.5133C9.40595 14.0513 9.93746 13.8986 10.2413 14.2478L13.6103 18.1221L18.6862 17.4431C19.143 17.3813 19.4716 17.9292 19.2299 18.35L16.6406 22.8491L18.7703 27.5303C18.97 27.9687 18.6288 28.455 18.1893 28.3597L13.1896 27.2712L9.43382 30.8743L9.43481 30.874Z" fill="#53E2A4"/>
<path fill-rule="evenodd" clip-rule="evenodd" d="M37.0702 6.77199H16.6102C16.158 6.77199 15.7243 6.92921 15.4046 7.20905C15.0848 7.48889 14.9052 7.86844 14.9052 8.2642V20.2018C14.9052 20.5976 15.0848 20.9772 15.4046 21.257C15.7243 21.5368 16.158 21.6941 16.6102 21.6941H20.8727C21.4021 21.6941 21.9242 21.8019 22.3977 22.0091C22.8712 22.2163 23.2831 22.5172 23.6007 22.8878L26.8402 26.6676L30.0797 22.8878C30.3973 22.5172 30.8092 22.2163 31.2827 22.0091C31.7562 21.8019 32.2783 21.6941 32.8077 21.6941H37.0702C37.5224 21.6941 37.9561 21.5368 38.2758 21.257C38.5956 20.9772 38.7752 20.5976 38.7752 20.2018V8.2642C38.7752 7.86844 38.5956 7.48889 38.2758 7.20905C37.9561 6.92921 37.5224 6.77199 37.0702 6.77199ZM16.6102 5.27979C15.7058 5.27979 14.8385 5.59421 14.199 6.1539C13.5595 6.71359 13.2002 7.47268 13.2002 8.2642V20.2018C13.2002 20.9934 13.5595 21.7525 14.199 22.3121C14.8385 22.8718 15.7058 23.1863 16.6102 23.1863H20.8727C21.1374 23.1863 21.3984 23.2402 21.6352 23.3438C21.8719 23.4474 22.0779 23.5978 22.2367 23.7831L25.4762 27.5629C25.635 27.7482 25.8409 27.8986 26.0777 28.0022C26.3144 28.1059 26.5755 28.1598 26.8402 28.1598C27.1049 28.1598 27.3659 28.1059 27.6027 28.0022C27.8394 27.8986 28.0454 27.7482 28.2042 27.5629L31.4437 23.7831C31.6025 23.5978 31.8084 23.4474 32.0452 23.3438C32.2819 23.2402 32.543 23.1863 32.8077 23.1863H37.0702C37.9746 23.1863 38.8419 22.8718 39.4814 22.3121C40.1209 21.7525 40.4802 20.9934 40.4802 20.2018V8.2642C40.4802 7.47268 40.1209 6.71359 39.4814 6.1539C38.8419 5.59421 37.9746 5.27979 37.0702 5.27979H26.8402H16.6102Z" fill="#53E2A4"/>
<path d="M23.015 14.1681C23.015 14.5416 22.8781 14.8998 22.6345 15.164C22.3908 15.4281 22.0603 15.5765 21.7157 15.5765C21.3712 15.5765 21.0407 15.4281 20.797 15.164C20.5534 14.8998 20.4165 14.5416 20.4165 14.1681C20.4165 13.7946 20.5534 13.4364 20.797 13.1723C21.0407 12.9081 21.3712 12.7598 21.7157 12.7598C22.0603 12.7598 22.3908 12.9081 22.6345 13.1723C22.8781 13.4364 23.015 13.7946 23.015 14.1681ZM28.212 14.1681C28.212 14.5416 28.0751 14.8998 27.8314 15.164C27.5878 15.4281 27.2573 15.5765 26.9127 15.5765C26.5681 15.5765 26.2377 15.4281 25.994 15.164C25.7504 14.8998 25.6135 14.5416 25.6135 14.1681C25.6135 13.7946 25.7504 13.4364 25.994 13.1723C26.2377 12.9081 26.5681 12.7598 26.9127 12.7598C27.2573 12.7598 27.5878 12.9081 27.8314 13.1723C28.0751 13.4364 28.212 13.7946 28.212 14.1681ZM33.409 14.1681C33.409 14.5416 33.2721 14.8998 33.0284 15.164C32.7848 15.4281 32.4543 15.5765 32.1097 15.5765C31.7651 15.5765 31.4347 15.4281 31.191 15.164C30.9474 14.8998 30.8105 14.5416 30.8105 14.1681C30.8105 13.7946 30.9474 13.4364 31.191 13.1723C31.4347 12.9081 31.7651 12.7598 32.1097 12.7598C32.4543 12.7598 32.7848 12.9081 33.0284 13.1723C33.2721 13.4364 33.409 13.7946 33.409 14.1681Z" fill="#53E2A4"/>
<path d="M5.3346 36.2453C5.3346 36.013 5.52324 35.8243 5.7554 35.8243C5.98032 35.8243 6.17621 36.013 6.17621 36.2453C6.17621 36.4702 5.98032 36.6589 5.7554 36.6589C5.52324 36.6589 5.3346 36.4702 5.3346 36.2453ZM4.88477 36.2453C4.88477 36.717 5.27656 37.1089 5.7554 37.1089C6.23425 37.1089 6.62603 36.717 6.62603 36.2453C6.62603 35.7663 6.23425 35.3744 5.7554 35.3744C5.27656 35.3744 4.88477 35.7663 4.88477 36.2453ZM1.9464 35.8316H0.879883C0.908904 36.0493 0.930669 36.4194 0.930669 36.5864C0.930669 37.0363 0.930669 39.6998 0.930669 40.5344C0.930669 41.1658 1.30069 41.5069 1.92464 41.623C2.23661 41.6738 2.67918 41.7029 3.15077 41.7029C3.94885 41.7029 5.04439 41.6593 5.73364 41.5577V40.4981C5.13145 40.6578 3.96336 40.7449 3.20156 40.7449C2.88233 40.7449 2.58486 40.7376 2.36721 40.7013C2.04072 40.6433 1.89562 40.5634 1.89562 40.2441C1.89562 39.6998 1.89562 37.0291 1.89562 36.5864C1.89562 36.3759 1.91738 36.0493 1.9464 35.8316ZM1.46756 38.0596L1.47481 39.0104C2.46152 38.7781 3.88355 38.3499 4.73967 38.0233C4.97909 37.929 5.30558 37.7911 5.58128 37.675L5.19675 36.7605C4.90654 36.9275 4.65986 37.0436 4.40593 37.1524C3.64413 37.4645 2.40348 37.8564 1.46756 38.0596Z" fill="#53E2A4"/>
<path d="M10.6382 37.0871L9.78206 37.3702C9.95619 37.7476 10.2754 38.6257 10.3697 38.9741L11.2331 38.6765C11.1315 38.3427 10.776 37.3919 10.6382 37.0871ZM13.3154 37.6097L12.2996 37.2831C12.2198 38.1975 11.8643 39.1628 11.371 39.7724C10.776 40.5272 9.76029 41.0787 8.96947 41.2964L9.73127 42.073C10.5801 41.7464 11.4798 41.144 12.1545 40.2659C12.6479 39.6345 12.9599 38.8797 13.1485 38.1467C13.192 38.0016 13.2356 37.8492 13.3154 37.6097ZM8.95496 37.4645L8.08433 37.7838C8.25846 38.0959 8.62848 39.0684 8.74456 39.4531L9.6297 39.1265C9.49185 38.7201 9.13634 37.8346 8.95496 37.4645Z" fill="#53E2A4"/>
<path d="M20.7592 36.8839L20.0119 36.4194C19.8523 36.4775 19.6057 36.5065 19.3807 36.5065C19.1558 36.5065 17.6322 36.5065 17.313 36.5065L16.9793 37.3339H19.4243C19.3082 37.8709 18.8874 38.7418 18.394 39.3079C17.7556 40.0264 16.9502 40.6578 15.4702 41.1078L16.3263 41.8698C17.6903 41.3327 18.5609 40.6651 19.2501 39.8232C19.9104 39.0176 20.3239 38.0524 20.5198 37.3992C20.5779 37.2178 20.6794 37.0218 20.7592 36.8839ZM18.394 35.73L17.3275 35.3816C17.2622 35.6356 17.1099 35.9695 17.001 36.1437C16.6455 36.7678 16.0071 37.704 14.7374 38.4806L15.55 39.0829C16.5947 38.3717 17.4581 37.3484 17.9515 36.4702C18.0313 36.3178 18.2199 35.984 18.394 35.73Z" fill="#53E2A4"/>
<path d="M28.4135 36.4848L27.8403 35.9477C27.7025 35.984 27.3035 36.013 27.1003 36.013C26.723 36.013 23.6468 36.013 23.1897 36.013C22.8923 36.013 22.5876 35.9767 22.3046 35.9332V36.9492C22.6456 36.913 22.8923 36.8984 23.1897 36.8984C23.6468 36.8984 26.5344 36.8984 26.977 36.8984C26.7883 37.2541 26.2224 37.8927 25.6348 38.2483L26.3893 38.8507C27.1076 38.3427 27.7968 37.421 28.1378 36.8549C28.2031 36.7533 28.341 36.5791 28.4135 36.4848ZM25.4606 37.4573H24.4086C24.4449 37.6968 24.4522 37.8854 24.4522 38.1177C24.4522 39.3079 24.278 40.0699 23.3639 40.7086C23.0954 40.9118 22.8342 41.0352 22.5948 41.115L23.4437 41.8045C25.4171 40.7376 25.4606 39.2571 25.4606 37.4573Z" fill="#53E2A4"/>
<path d="M32.4039 37.0871L31.5478 37.3702C31.7219 37.7476 32.0411 38.6257 32.1354 38.9741L32.9988 38.6765C32.8972 38.3427 32.5417 37.3919 32.4039 37.0871ZM35.0811 37.6097L34.0653 37.2831C33.9855 38.1975 33.63 39.1628 33.1367 39.7724C32.5417 40.5272 31.526 41.0787 30.7352 41.2964L31.497 42.073C32.3458 41.7464 33.2455 41.144 33.9202 40.2659C34.4136 39.6345 34.7256 38.8797 34.9142 38.1467C34.9577 38.0016 35.0013 37.8492 35.0811 37.6097ZM30.7207 37.4645L29.85 37.7838C30.0242 38.0959 30.3942 39.0684 30.5103 39.4531L31.3954 39.1265C31.2576 38.7201 30.9021 37.8346 30.7207 37.4645Z" fill="#53E2A4"/>
<path d="M41.8284 36.0711C41.8284 35.8389 42.0171 35.6502 42.2492 35.6502C42.4814 35.6502 42.6701 35.8389 42.6701 36.0711C42.6701 36.3033 42.4814 36.492 42.2492 36.492C42.0171 36.492 41.8284 36.3033 41.8284 36.0711ZM41.3786 36.0711C41.3786 36.5501 41.7704 36.942 42.2492 36.942C42.7281 36.942 43.1199 36.5501 43.1199 36.0711C43.1199 35.5921 42.7281 35.2002 42.2492 35.2002C41.7704 35.2002 41.3786 35.5921 41.3786 36.0711ZM42.2638 36.6444L41.5455 36.1872C41.3569 36.238 41.1247 36.2453 40.9796 36.2453C40.5733 36.2453 38.1646 36.2453 37.6204 36.2453C37.381 36.2453 36.9747 36.209 36.757 36.1799V37.2105C36.9457 37.196 37.2867 37.1742 37.6204 37.1742C38.1646 37.1742 40.5588 37.1742 41.0013 37.1742C40.907 37.7984 40.6313 38.6257 40.1452 39.2281C39.5648 39.9611 38.745 40.5925 37.3012 40.9263L38.092 41.7972C39.3907 41.3835 40.3556 40.6651 41.0086 39.7942C41.618 38.9886 41.9373 37.8564 42.1041 37.1452C42.1404 36.9928 42.1912 36.7823 42.2638 36.6444Z" fill="#53E2A4"/>
</svg>
