<svg width="44" height="44" viewBox="0 0 44 44" fill="none" xmlns="http://www.w3.org/2000/svg">
<rect width="44" height="44" rx="5" fill="#A6FFD7" fill-opacity="0.32"/>
<path d="M23.3615 6.64168C23.3615 7.00288 23.218 7.34929 22.9626 7.60469C22.7072 7.8601 22.3608 8.00358 21.9996 8.00358C21.6384 8.00358 21.292 7.8601 21.0366 7.60469C20.7812 7.34929 20.6377 7.00288 20.6377 6.64168C20.6377 6.28049 20.7812 5.93408 21.0366 5.67868C21.292 5.42327 21.6384 5.27979 21.9996 5.27979C22.3608 5.27979 22.7072 5.42327 22.9626 5.67868C23.218 5.93408 23.3615 6.28049 23.3615 6.64168Z" fill="#53E2A4"/>
<path d="M23.3615 6.64168C23.3615 7.00288 23.218 7.34929 22.9626 7.60469C22.7072 7.8601 22.3608 8.00358 21.9996 8.00358C21.6384 8.00358 21.292 7.8601 21.0366 7.60469C20.7812 7.34929 20.6377 7.00288 20.6377 6.64168C20.6377 6.28049 20.7812 5.93408 21.0366 5.67868C21.292 5.42327 21.6384 5.27979 21.9996 5.27979C22.3608 5.27979 22.7072 5.42327 22.9626 5.67868C23.218 5.93408 23.3615 6.28049 23.3615 6.64168Z" fill="#53E2A4"/>
<path d="M10.424 10.7262C10.424 11.0874 10.2805 11.4338 10.0251 11.6892C9.76969 11.9446 9.42329 12.0881 9.06209 12.0881C8.70089 12.0881 8.35449 11.9446 8.09908 11.6892C7.84367 11.4338 7.70019 11.0874 7.70019 10.7262C7.70019 10.365 7.84367 10.0186 8.09908 9.76315C8.35449 9.50774 8.70089 9.36426 9.06209 9.36426C9.42329 9.36426 9.76969 9.50774 10.0251 9.76315C10.2805 10.0186 10.424 10.365 10.424 10.7262Z" fill="#53E2A4"/>
<path d="M10.424 10.7262C10.424 11.0874 10.2805 11.4338 10.0251 11.6892C9.76969 11.9446 9.42329 12.0881 9.06209 12.0881C8.70089 12.0881 8.35449 11.9446 8.09908 11.6892C7.84367 11.4338 7.70019 11.0874 7.70019 10.7262C7.70019 10.365 7.84367 10.0186 8.09908 9.76315C8.35449 9.50774 8.70089 9.36426 9.06209 9.36426C9.42329 9.36426 9.76969 9.50774 10.0251 9.76315C10.2805 10.0186 10.424 10.365 10.424 10.7262Z" fill="#53E2A4"/>
<path d="M36.3005 10.7262C36.3005 11.0874 36.157 11.4338 35.9016 11.6892C35.6462 11.9446 35.2998 12.0881 34.9386 12.0881C34.5774 12.0881 34.231 11.9446 33.9755 11.6892C33.7201 11.4338 33.5767 11.0874 33.5767 10.7262C33.5767 10.365 33.7201 10.0186 33.9755 9.76315C34.231 9.50774 34.5774 9.36426 34.9386 9.36426C35.2998 9.36426 35.6462 9.50774 35.9016 9.76315C36.157 10.0186 36.3005 10.365 36.3005 10.7262Z" fill="#53E2A4"/>
<path d="M36.3005 10.7262C36.3005 11.0874 36.157 11.4338 35.9016 11.6892C35.6462 11.9446 35.2998 12.0881 34.9386 12.0881C34.5774 12.0881 34.231 11.9446 33.9755 11.6892C33.7201 11.4338 33.5767 11.0874 33.5767 10.7262C33.5767 10.365 33.7201 10.0186 33.9755 9.76315C34.231 9.50774 34.5774 9.36426 34.9386 9.36426C35.2998 9.36426 35.6462 9.50774 35.9016 9.76315C36.157 10.0186 36.3005 10.365 36.3005 10.7262Z" fill="#53E2A4"/>
<path d="M34.2419 16.1372L31.4219 28.215C31.3163 28.6675 30.9128 28.9876 30.4481 28.9876H22.0001H13.552C13.0873 28.9876 12.6839 28.6675 12.5782 28.2149L9.7582 16.1372C9.53829 15.1953 10.6505 14.521 11.3839 15.1515L16.3121 19.388C16.834 19.8367 17.6426 19.6362 17.8945 18.9957L21.0695 10.9247C21.402 10.0795 22.5981 10.0795 22.9306 10.9247L26.1056 18.9957C26.3575 19.6362 27.1661 19.8367 27.688 19.388L32.6162 15.1515C33.3497 14.521 34.4618 15.1953 34.2419 16.1372Z" fill="#53E2A4"/>
<path d="M5.72256 35.4508V36.3768C5.92915 36.3555 6.22834 36.3483 6.46343 36.3483C6.88372 36.3483 8.79287 36.3483 9.18468 36.3483C9.44825 36.3483 9.78307 36.3626 9.96828 36.3768V35.4508C9.77594 35.4793 9.42688 35.4935 9.19892 35.4935C8.78575 35.4935 6.91222 35.4935 6.46343 35.4935C6.22122 35.4935 5.9149 35.4793 5.72256 35.4508ZM10.5738 37.5238L9.93979 37.1248C9.84006 37.1747 9.64772 37.2032 9.41263 37.2032C8.92822 37.2032 6.37794 37.2032 5.89353 37.2032C5.66557 37.2032 5.36638 37.1818 5.06006 37.1533V38.0794C5.35925 38.058 5.71544 38.0509 5.89353 38.0509C6.52754 38.0509 8.97097 38.0509 9.32715 38.0509C9.20605 38.4427 8.97809 38.8915 8.60053 39.2762C8.05201 39.839 7.20429 40.302 6.12861 40.53L6.84098 41.3349C7.75281 41.0714 8.66465 40.5941 9.38414 39.7891C9.91129 39.205 10.2176 38.5068 10.4384 37.8158C10.4598 37.7446 10.5239 37.6164 10.5738 37.5238Z" fill="#53E2A4"/>
<path d="M12.9745 35.5006L12.2977 36.2201C12.8178 36.5763 13.7153 37.3528 14.0858 37.7517L14.8124 37.0109C14.3921 36.5763 13.466 35.8354 12.9745 35.5006ZM12.0769 40.245L12.6824 41.1853C13.6797 41.0144 14.5987 40.6226 15.3253 40.188C16.4722 39.497 17.4197 38.514 17.9539 37.5451L17.4054 36.5478C16.9495 37.5095 16.0234 38.5923 14.8053 39.3189C14.1143 39.725 13.1953 40.0883 12.0769 40.245Z" fill="#53E2A4"/>
<path d="M20.9744 35.8283C21.0884 36.4053 21.7794 39.9957 21.8862 40.6368C21.9361 40.8505 21.9503 41.0927 21.986 41.3563L23.0118 41.1782C22.9476 40.9431 22.8835 40.6867 22.8337 40.4801C22.6841 39.7535 21.9788 36.1489 21.9076 35.6787C21.8791 35.5078 21.8506 35.2655 21.8364 35.1302L20.8248 35.294C20.8818 35.4579 20.9316 35.6289 20.9744 35.8283ZM19.0296 36.7402L19.222 37.7232C19.4642 37.6591 19.6494 37.6164 19.8702 37.5736C20.4045 37.481 22.855 37.0892 23.6102 36.9681C23.8239 36.9396 24.1159 36.8969 24.2727 36.8898L24.0946 35.9494C23.9236 35.9993 23.6529 36.0634 23.4321 36.099C22.7909 36.2272 20.2976 36.6119 19.6921 36.6832C19.4642 36.7117 19.2505 36.7259 19.0296 36.7402ZM19.0367 38.8274L19.2362 39.782C19.3929 39.7392 19.6423 39.6965 19.9486 39.6395C20.6538 39.5041 23.2183 39.0838 24.1231 38.9485C24.3866 38.9058 24.6787 38.8559 24.871 38.8416L24.6858 37.9013C24.4935 37.9512 24.2299 38.0153 23.9521 38.0652C23.1329 38.2219 20.5327 38.6422 19.7705 38.749C19.5496 38.7847 19.222 38.8203 19.0367 38.8274Z" fill="#53E2A4"/>
<path d="M27.0062 35.5006L26.3295 36.2201C26.8495 36.5763 27.7471 37.3528 28.1175 37.7517L28.8441 37.0109C28.4238 36.5763 27.4977 35.8354 27.0062 35.5006ZM26.1086 40.245L26.7141 41.1853C27.7115 41.0144 28.6304 40.6226 29.357 40.188C30.5039 39.497 31.4514 38.514 31.9857 37.5451L31.4371 36.5478C30.9812 37.5095 30.0551 38.5923 28.837 39.3189C28.146 39.725 27.227 40.0883 26.1086 40.245Z" fill="#53E2A4"/>
<path d="M37.9624 35.0803L37.3925 35.3154C37.5849 35.5861 37.8057 36.0135 37.9553 36.3056L38.5252 36.0563C38.3899 35.7927 38.1405 35.3439 37.9624 35.0803ZM38.803 34.7598L38.2403 34.9948C38.4326 35.2584 38.6606 35.6787 38.8102 35.9708L39.3801 35.7286C39.2518 35.4793 38.9883 35.0305 38.803 34.7598ZM38.5965 36.6475L37.8698 36.1988C37.706 36.2557 37.4709 36.2842 37.2501 36.2842C37.0221 36.2842 35.5333 36.2842 35.2127 36.2842L34.885 37.0963H37.2857C37.1717 37.6235 36.7585 38.4783 36.2741 39.034C35.6544 39.7392 34.8636 40.359 33.4033 40.8007L34.2439 41.5486C35.5831 41.0215 36.4451 40.3661 37.1218 39.5398C37.763 38.749 38.169 37.7945 38.3614 37.1605C38.4184 36.9824 38.5181 36.79 38.5965 36.6475ZM36.2741 35.522L35.2341 35.1801C35.17 35.4223 35.0204 35.7571 34.9135 35.9281C34.5573 36.5407 33.9376 37.4596 32.6838 38.2219L33.4888 38.8131C34.5075 38.115 35.3623 37.1106 35.8396 36.2486C35.9251 36.099 36.1103 35.7713 36.2741 35.522Z" fill="#53E2A4"/>
</svg>
