<svg width="44" height="44" viewBox="0 0 44 44" fill="none" xmlns="http://www.w3.org/2000/svg">
<rect width="44" height="44" rx="5" fill="#A6FFD7" fill-opacity="0.32"/>
<path d="M18.9679 26.1593C18.6837 26.3077 18.3613 26.0476 18.4187 25.7156L19.0297 22.1707L16.4364 19.6556C16.1942 19.4203 16.3201 18.9901 16.6447 18.9436L20.2501 18.422L21.8578 15.1792C22.0028 14.8869 22.3951 14.8869 22.5401 15.1792L24.1478 18.422L27.7532 18.9436C28.0778 18.9901 28.2037 19.4203 27.9615 19.6556L25.3682 22.1707L25.9792 25.7156C26.0366 26.0476 25.7142 26.3077 25.4301 26.1593L22.1979 24.4685L18.9671 26.1593H18.9679Z" fill="#53E2A4"/>
<path d="M6.17782 26.1593C5.89368 26.3077 5.57127 26.0476 5.62869 25.7156L6.23965 22.1707L3.64637 19.6556C3.4042 19.4203 3.53007 18.9901 3.85469 18.9436L7.4601 18.422L9.06774 15.1792C9.21275 14.8869 9.60509 14.8869 9.7501 15.1792L11.3577 18.422L14.9631 18.9436C15.2878 18.9901 15.4136 19.4203 15.1715 19.6556L12.5782 22.1707L13.1892 25.7156C13.2466 26.0476 12.9242 26.3077 12.64 26.1593L9.40781 24.4685L6.17782 26.1593Z" fill="#53E2A4"/>
<path fill-rule="evenodd" clip-rule="evenodd" d="M33.0895 18.3871L34.7173 15.1766C34.7486 15.112 34.7974 15.0575 34.8583 15.0192C34.9192 14.9809 34.9896 14.9604 35.0617 14.96C35.198 14.96 35.3344 15.0319 35.4082 15.1766L37.036 18.3871L40.6866 18.9035C40.7776 18.9177 40.8608 18.9627 40.9223 19.031C40.9839 19.0993 41.0198 19.1866 41.0242 19.2781C41.0293 19.3391 41.0205 19.4004 40.9986 19.4576C40.9767 19.5147 40.9421 19.5663 40.8975 19.6083L38.2717 22.0983L38.8904 25.6078C38.9485 25.9365 38.622 26.1939 38.3343 26.047L35.0617 24.3732L31.7905 26.047C31.7562 26.0647 31.7196 26.0772 31.6816 26.0841C31.4275 26.1286 31.1838 25.8957 31.2344 25.6078L31.8531 22.0983L29.228 19.6083C29.1874 19.5698 29.1551 19.5234 29.1332 19.472C29.1112 19.4205 29.1001 19.3652 29.1006 19.3093C29.1008 19.2304 29.1224 19.1529 29.1632 19.0852C29.1926 19.0363 29.2326 18.9946 29.2803 18.9631C29.3281 18.9317 29.3823 18.9113 29.439 18.9035L33.0895 18.3871ZM35.0617 23.5125C35.1213 23.5125 35.1809 23.5258 35.2346 23.554L37.9818 24.9593L37.4646 22.0234C37.4524 21.9558 37.4571 21.8863 37.4783 21.8209C37.4995 21.7556 37.5365 21.6964 37.586 21.6487L39.7519 19.5935L36.7319 19.1661C36.6694 19.1567 36.6101 19.1324 36.559 19.0951C36.508 19.0579 36.4668 19.009 36.439 18.9524L35.0631 16.2384L35.0617 16.2406V23.5118V23.5125Z" fill="#53E2A4"/>
<path d="M1.31982 40.9679L1.9948 41.5918C2.16713 41.4701 2.3251 41.4168 2.41845 41.3864C4.11306 40.8006 5.60662 39.8876 6.59035 38.6475L6.08053 37.7802C5.16142 38.9746 3.56016 39.9485 2.38973 40.2984C2.38973 39.7202 2.38973 37.1867 2.38973 36.3422C2.38973 36.0531 2.41845 35.7716 2.45435 35.4825H1.327C1.37009 35.6956 1.41317 36.0607 1.41317 36.3422C1.41317 37.1943 1.41317 39.8952 1.41317 40.4734C1.41317 40.6484 1.39881 40.7777 1.31982 40.9679Z" fill="#53E2A4"/>
<path d="M12.3994 35.1021L11.8322 35.3532C12.026 35.6499 12.2414 36.0988 12.3922 36.4107L12.9667 36.1444C12.8303 35.8629 12.5789 35.3836 12.3994 35.1021ZM13.2467 34.7598L12.6795 35.0108C12.8733 35.2999 13.1103 35.7412 13.2539 36.0607L13.8284 35.7945C13.6991 35.5282 13.4334 35.0489 13.2467 34.7598ZM9.29742 35.4369H8.24188C8.2706 35.6651 8.29214 36.0531 8.29214 36.2281C8.29214 36.6998 8.29214 39.492 8.29214 40.3669C8.29214 41.0288 8.65835 41.3864 9.27588 41.5081C9.58464 41.5614 10.0227 41.5918 10.4894 41.5918C11.2793 41.5918 12.3635 41.5461 13.0457 41.4396V40.3289C12.4497 40.4962 11.2936 40.5875 10.5397 40.5875C10.2237 40.5875 9.92931 40.5799 9.71389 40.5419C9.39077 40.481 9.24716 40.3973 9.24716 40.0626C9.24716 39.492 9.24716 36.6922 9.24716 36.2281C9.24716 36.0075 9.2687 35.6651 9.29742 35.4369ZM8.8235 37.7726L8.83069 38.7692C9.80724 38.5257 11.2146 38.0769 12.0619 37.7345C12.2989 37.6356 12.622 37.4911 12.8949 37.3693L12.5143 36.4107C12.2271 36.5857 11.9829 36.7074 11.7316 36.8215C10.9777 37.1487 9.7498 37.5595 8.8235 37.7726Z" fill="#53E2A4"/>
<path d="M19.7236 37.6432L19.0343 37.2856C18.9409 37.3389 18.6465 37.3693 18.5029 37.3693C18.1582 37.3693 17.0237 37.3693 16.6575 37.3693C16.4708 37.3693 16.1405 37.3465 15.9466 37.3161V38.3203C16.1549 38.3051 16.4421 38.2899 16.6647 38.2899C16.8729 38.2899 18.2659 38.2899 18.6106 38.2899C18.5747 38.7996 18.3593 40.268 18.2659 40.7701H19.2569C19.343 40.2223 19.5872 38.4953 19.659 37.9628C19.6661 37.8791 19.6949 37.7421 19.7236 37.6432ZM15.2932 40.3973V41.394C15.5589 41.3788 15.7456 41.3712 15.9969 41.3712C16.3631 41.3712 19.4076 41.3712 19.781 41.3712C19.9677 41.3712 20.3196 41.3788 20.4704 41.3864V40.4049C20.2837 40.4278 19.9462 40.443 19.7667 40.443C19.4148 40.443 16.4277 40.443 15.9969 40.443C15.7527 40.443 15.4799 40.4201 15.2932 40.3973Z" fill="#53E2A4"/>
<path d="M22.1147 37.7421V38.9442C22.3876 38.9214 22.8687 38.8985 23.2708 38.8985C24.1181 38.8985 26.4805 38.8985 27.1339 38.8985C27.4355 38.8985 27.8017 38.9366 27.974 38.9442V37.7421C27.7802 37.7573 27.4642 37.7954 27.1267 37.7954C26.4877 37.7954 24.1181 37.7954 23.2708 37.7954C22.8974 37.7954 22.3804 37.7649 22.1147 37.7421Z" fill="#53E2A4"/>
<path d="M34.6161 36.2814C34.5443 36.8368 34.3791 37.6052 34.2211 38.0921L34.8817 38.2671C35.0613 37.8106 35.2551 37.0954 35.4346 36.4564L34.6161 36.2814ZM31.8803 36.502C32.0239 37.065 32.1531 37.803 32.1675 38.2823L32.8999 38.1073C32.864 37.628 32.7276 36.9052 32.5696 36.3422L31.8803 36.502ZM31.8085 35.1858V36.0303H35.4705V35.1858H31.8085ZM31.5643 38.4801V39.3474H35.5998V38.4801H31.5643ZM33.1512 35.4825V41.9418H33.9985V35.4825H33.1512ZM29.2019 37.1411V37.8258H31.4207V37.1411H29.2019ZM29.2235 35.0413V35.7336H31.4064V35.0413H29.2235ZM29.2019 38.1758V38.8681H31.4207V38.1758H29.2019ZM28.8501 36.0683V36.7911H31.6792V36.0683H28.8501ZM29.5969 39.2333V39.9561H30.6739V40.8234H29.5969V41.5461H31.4135V39.2333H29.5969ZM29.1804 39.2333V41.8505H29.9056V39.2333H29.1804Z" fill="#53E2A4"/>
<path d="M38.0914 35.551V36.3727H42.6798V35.551H38.0914ZM38.1633 37.3237V41.7896H38.9531V38.1149H41.811V41.7439H42.6367V37.3237H38.1633ZM39.3265 35.6575V37.9095H40.1307V35.6575H39.3265ZM40.6046 35.6499V37.9019H41.4232V35.6499H40.6046ZM38.5223 40.5647V41.3483H42.4213V40.5647H38.5223ZM39.4055 37.9019V41.1733H40.1307V37.9019H39.4055ZM40.6046 37.9019V41.1657H41.3299V37.9019H40.6046ZM37.4667 34.8206C37.1149 35.8781 36.5261 36.9281 35.9014 37.5976C36.045 37.8182 36.2748 38.2975 36.3466 38.5105C37.0933 37.666 37.8042 36.3346 38.2422 35.0869L37.4667 34.8206ZM36.7846 36.9433V41.9494H37.5888V36.0988V36.0912L36.7846 36.9433Z" fill="#53E2A4"/>
</svg>
